<svg width="665" height="213" viewBox="0 0 665 213" fill="none" xmlns="http://www.w3.org/2000/svg">
<g clip-path="url(#clip0_144_2063)">
<mask id="path-1-inside-1_144_2063" fill="white">
<path d="M660.475 55.0651V47.3479H664.995V11.4932H589.511V31.45H553.903C553.772 30.271 553.646 29.1325 553.506 27.8456C552.502 27.7016 551.53 27.5621 550.341 27.3911C550.228 26.2796 550.111 25.1412 549.972 23.7777C548.832 23.6562 547.693 23.5302 546.324 23.3817C546.198 22.2703 546.068 21.1363 545.906 19.7279C544.748 19.6064 543.542 19.4759 542.213 19.3364C542.069 18.1709 541.934 17.109 541.763 15.7365C539.313 15.5835 536.841 15.4305 534.248 15.2685C534.077 14.0131 533.924 12.8836 533.748 11.6057H435.357C435.227 12.7846 435.105 13.9186 434.957 15.273C433.817 15.3945 432.678 15.5115 431.314 15.6555C431.188 16.7805 431.057 17.9189 430.904 19.2869C429.805 19.4129 428.666 19.5479 427.248 19.7144C427.126 20.8573 426.996 22.0588 426.852 23.3772C425.766 23.5032 424.794 23.6202 423.691 23.7462C423.565 24.9747 423.443 26.1131 423.312 27.3911C422.097 27.5216 420.957 27.6431 419.652 27.7826C419.526 28.9795 419.404 30.118 419.264 31.441H415.509V11.6282H308.806C308.68 12.7891 308.554 13.9231 308.406 15.273C307.266 15.3945 306.123 15.5205 304.659 15.6735V23.3232H300.782C300.67 22.2163 300.553 21.0733 300.422 19.7684C299.427 19.6244 298.454 19.4849 297.252 19.3139C297.131 18.2249 297 17.0865 296.833 15.6105H289.21C289.048 14.1661 288.917 13.0321 288.742 11.4977H237.541C237.392 10.2017 237.288 9.29724 237.153 8.16328C236.158 8.01478 235.123 7.86179 233.961 7.6863C233.835 6.48034 233.713 5.33738 233.56 3.88393H225.919C225.757 2.43498 225.626 1.30102 225.478 0.00506592H55.7311C55.6005 1.16602 55.4745 2.29999 55.3124 3.75793H47.6711C47.509 5.18438 47.3784 6.31384 47.2298 7.6503C46.2933 7.78979 45.3251 7.93379 44.0283 8.13178C43.9203 10.3637 43.8077 12.6631 43.6861 15.192C42.4884 15.345 41.3537 15.4845 40.0209 15.6555C39.9038 16.8075 39.7822 17.9504 39.6336 19.4174H27.9354C27.7732 20.8438 27.6427 21.9733 27.4896 23.3232C26.553 23.4537 25.5804 23.5932 24.3376 23.7687C24.216 24.9027 24.081 26.1041 23.9414 27.4271C22.6896 27.5531 21.5459 27.6656 20.2716 27.7961C20.1455 29.0335 20.0284 30.172 19.8979 31.4455C18.6731 31.5805 17.5294 31.7019 16.2146 31.8459V130.005C17.3493 130.136 18.484 130.266 19.8483 130.419C19.9744 131.522 20.105 132.656 20.2716 134.064C21.4198 134.19 22.6266 134.321 23.9369 134.465C24.0674 135.554 24.18 136.521 24.3106 137.624C25.3868 137.745 26.3594 137.858 27.4626 137.984C27.5976 139.203 27.7237 140.342 27.8813 141.795H39.5886C39.7372 143.235 39.8543 144.373 39.9893 145.692C45.924 145.98 43.0828 150.475 44.1319 153.76H4.61086C4.28216 155.056 4.03901 156.01 3.74182 157.176C2.55309 157.464 1.35984 157.756 0 158.089V208.82C1.44089 208.946 2.74671 209.059 4.25514 209.194C4.31818 210.53 4.37672 211.768 4.43525 213.001H308.649V209.261C310.04 209.099 311.242 208.96 312.589 208.802V193.426C310.108 193.282 307.726 193.147 305.141 192.994C304.902 191.73 304.704 190.695 304.434 189.273H297.288C297.122 187.761 296.995 186.627 296.833 185.192H289.129V181.313H399.574C399.745 179.972 399.866 179.004 400.01 177.897C401.226 177.776 402.37 177.659 403.653 177.528C403.779 176.313 403.901 175.175 404.04 173.865H407.296V181.047H434.903C435.087 179.918 435.249 178.959 435.425 177.875C436.65 177.749 437.789 177.632 439.068 177.497C439.203 176.268 439.329 175.134 439.468 173.865C440.698 173.735 441.837 173.613 443.291 173.456V165.829C444.732 165.667 445.867 165.541 447.321 165.379V126.401H522.158V181.043H581.329C581.451 179.994 581.559 179.094 581.698 177.915C582.86 177.789 584.062 177.659 585.391 177.515C585.517 176.268 585.629 175.13 585.76 173.838H589.38V180.993H652.703C652.933 180.237 653.185 179.387 653.509 178.32C654.504 178.077 655.535 177.83 656.769 177.528C656.872 176.453 656.981 175.301 657.107 173.924C658.111 173.771 659.151 173.618 660.317 173.438C660.434 172.232 660.547 171.094 660.695 169.573H664.995V137.754C663.487 137.741 661.979 137.732 660.47 137.718V134.19H656.935V126.428C658.178 126.271 659.146 126.149 660.466 125.978V118.058H665V78.6668H640.933V55.0696H660.479L660.475 55.0651ZM265.345 130.671V173.393H253.602V153.877H237.495V150.147C238.608 150.021 239.747 149.895 241.296 149.719V126.356H268.952C269.002 127.49 269.056 128.611 269.11 129.897C267.925 130.14 266.894 130.352 265.341 130.671H265.345ZM320.572 130.338C319.352 130.208 302.133 130.086 300.8 129.942C300.67 128.777 300.548 127.643 300.404 126.352C299.404 126.199 298.432 126.055 297.257 125.875C297.14 124.754 297.022 123.611 296.869 122.149H273.495V114.778C274.657 114.648 275.792 114.522 277.251 114.36V82.9551H304.542V126.167H320.572V130.334V130.338ZM415.419 134.186H411.375V137.714H407.382V134.186H403.838V126.104H399.794V122.234H372.012V130.199H352.488V130.001H352.168C352.236 128.827 352.299 127.648 352.371 126.37C353.681 126.239 354.82 126.127 356.095 125.996C356.221 124.75 356.338 123.616 356.464 122.338C357.693 122.212 358.832 122.095 360.12 121.964C360.251 120.754 360.368 119.615 360.507 118.337C361.53 118.198 362.502 118.063 363.637 117.905C363.776 116.933 363.912 115.961 364.083 114.769C365.19 114.657 366.329 114.535 367.698 114.396C367.824 113.271 367.955 112.137 368.117 110.742C369.27 110.616 370.477 110.481 371.787 110.337C371.922 109.081 372.039 107.943 372.179 106.656H411.231V125.924C412.74 126.1 413.942 126.235 415.424 126.406V134.186H415.419ZM561.539 129.911C560.387 130.037 559.252 130.163 557.887 130.311C557.757 131.409 557.622 132.543 557.446 134.006C556.226 134.064 554.952 134.123 553.673 134.186V130.145H550.125V126.352H561.544V129.911H561.539ZM621.057 134.316V126.406H624.921C624.371 129.506 626.866 133.794 621.057 134.316ZM636.948 157.671H629.315V146.065H636.948V157.671Z"/>
</mask>
<path d="M660.475 55.0651V47.3479H664.995V11.4932H589.511V31.45H553.903C553.772 30.271 553.646 29.1325 553.506 27.8456C552.502 27.7016 551.53 27.5621 550.341 27.3911C550.228 26.2796 550.111 25.1412 549.972 23.7777C548.832 23.6562 547.693 23.5302 546.324 23.3817C546.198 22.2703 546.068 21.1363 545.906 19.7279C544.748 19.6064 543.542 19.4759 542.213 19.3364C542.069 18.1709 541.934 17.109 541.763 15.7365C539.313 15.5835 536.841 15.4305 534.248 15.2685C534.077 14.0131 533.924 12.8836 533.748 11.6057H435.357C435.227 12.7846 435.105 13.9186 434.957 15.273C433.817 15.3945 432.678 15.5115 431.314 15.6555C431.188 16.7805 431.057 17.9189 430.904 19.2869C429.805 19.4129 428.666 19.5479 427.248 19.7144C427.126 20.8573 426.996 22.0588 426.852 23.3772C425.766 23.5032 424.794 23.6202 423.691 23.7462C423.565 24.9747 423.443 26.1131 423.312 27.3911C422.097 27.5216 420.957 27.6431 419.652 27.7826C419.526 28.9795 419.404 30.118 419.264 31.441H415.509V11.6282H308.806C308.68 12.7891 308.554 13.9231 308.406 15.273C307.266 15.3945 306.123 15.5205 304.659 15.6735V23.3232H300.782C300.67 22.2163 300.553 21.0733 300.422 19.7684C299.427 19.6244 298.454 19.4849 297.252 19.3139C297.131 18.2249 297 17.0865 296.833 15.6105H289.21C289.048 14.1661 288.917 13.0321 288.742 11.4977H237.541C237.392 10.2017 237.288 9.29724 237.153 8.16328C236.158 8.01478 235.123 7.86179 233.961 7.6863C233.835 6.48034 233.713 5.33738 233.56 3.88393H225.919C225.757 2.43498 225.626 1.30102 225.478 0.00506592H55.7311C55.6005 1.16602 55.4745 2.29999 55.3124 3.75793H47.6711C47.509 5.18438 47.3784 6.31384 47.2298 7.6503C46.2933 7.78979 45.3251 7.93379 44.0283 8.13178C43.9203 10.3637 43.8077 12.6631 43.6861 15.192C42.4884 15.345 41.3537 15.4845 40.0209 15.6555C39.9038 16.8075 39.7822 17.9504 39.6336 19.4174H27.9354C27.7732 20.8438 27.6427 21.9733 27.4896 23.3232C26.553 23.4537 25.5804 23.5932 24.3376 23.7687C24.216 24.9027 24.081 26.1041 23.9414 27.4271C22.6896 27.5531 21.5459 27.6656 20.2716 27.7961C20.1455 29.0335 20.0284 30.172 19.8979 31.4455C18.6731 31.5805 17.5294 31.7019 16.2146 31.8459V130.005C17.3493 130.136 18.484 130.266 19.8483 130.419C19.9744 131.522 20.105 132.656 20.2716 134.064C21.4198 134.19 22.6266 134.321 23.9369 134.465C24.0674 135.554 24.18 136.521 24.3106 137.624C25.3868 137.745 26.3594 137.858 27.4626 137.984C27.5976 139.203 27.7237 140.342 27.8813 141.795H39.5886C39.7372 143.235 39.8543 144.373 39.9893 145.692C45.924 145.98 43.0828 150.475 44.1319 153.76H4.61086C4.28216 155.056 4.03901 156.01 3.74182 157.176C2.55309 157.464 1.35984 157.756 0 158.089V208.82C1.44089 208.946 2.74671 209.059 4.25514 209.194C4.31818 210.53 4.37672 211.768 4.43525 213.001H308.649V209.261C310.04 209.099 311.242 208.96 312.589 208.802V193.426C310.108 193.282 307.726 193.147 305.141 192.994C304.902 191.73 304.704 190.695 304.434 189.273H297.288C297.122 187.761 296.995 186.627 296.833 185.192H289.129V181.313H399.574C399.745 179.972 399.866 179.004 400.01 177.897C401.226 177.776 402.37 177.659 403.653 177.528C403.779 176.313 403.901 175.175 404.04 173.865H407.296V181.047H434.903C435.087 179.918 435.249 178.959 435.425 177.875C436.65 177.749 437.789 177.632 439.068 177.497C439.203 176.268 439.329 175.134 439.468 173.865C440.698 173.735 441.837 173.613 443.291 173.456V165.829C444.732 165.667 445.867 165.541 447.321 165.379V126.401H522.158V181.043H581.329C581.451 179.994 581.559 179.094 581.698 177.915C582.86 177.789 584.062 177.659 585.391 177.515C585.517 176.268 585.629 175.13 585.76 173.838H589.38V180.993H652.703C652.933 180.237 653.185 179.387 653.509 178.32C654.504 178.077 655.535 177.83 656.769 177.528C656.872 176.453 656.981 175.301 657.107 173.924C658.111 173.771 659.151 173.618 660.317 173.438C660.434 172.232 660.547 171.094 660.695 169.573H664.995V137.754C663.487 137.741 661.979 137.732 660.47 137.718V134.19H656.935V126.428C658.178 126.271 659.146 126.149 660.466 125.978V118.058H665V78.6668H640.933V55.0696H660.479L660.475 55.0651ZM265.345 130.671V173.393H253.602V153.877H237.495V150.147C238.608 150.021 239.747 149.895 241.296 149.719V126.356H268.952C269.002 127.49 269.056 128.611 269.11 129.897C267.925 130.14 266.894 130.352 265.341 130.671H265.345ZM320.572 130.338C319.352 130.208 302.133 130.086 300.8 129.942C300.67 128.777 300.548 127.643 300.404 126.352C299.404 126.199 298.432 126.055 297.257 125.875C297.14 124.754 297.022 123.611 296.869 122.149H273.495V114.778C274.657 114.648 275.792 114.522 277.251 114.36V82.9551H304.542V126.167H320.572V130.334V130.338ZM415.419 134.186H411.375V137.714H407.382V134.186H403.838V126.104H399.794V122.234H372.012V130.199H352.488V130.001H352.168C352.236 128.827 352.299 127.648 352.371 126.37C353.681 126.239 354.82 126.127 356.095 125.996C356.221 124.75 356.338 123.616 356.464 122.338C357.693 122.212 358.832 122.095 360.12 121.964C360.251 120.754 360.368 119.615 360.507 118.337C361.53 118.198 362.502 118.063 363.637 117.905C363.776 116.933 363.912 115.961 364.083 114.769C365.19 114.657 366.329 114.535 367.698 114.396C367.824 113.271 367.955 112.137 368.117 110.742C369.27 110.616 370.477 110.481 371.787 110.337C371.922 109.081 372.039 107.943 372.179 106.656H411.231V125.924C412.74 126.1 413.942 126.235 415.424 126.406V134.186H415.419ZM561.539 129.911C560.387 130.037 559.252 130.163 557.887 130.311C557.757 131.409 557.622 132.543 557.446 134.006C556.226 134.064 554.952 134.123 553.673 134.186V130.145H550.125V126.352H561.544V129.911H561.539ZM621.057 134.316V126.406H624.921C624.371 129.506 626.866 133.794 621.057 134.316ZM636.948 157.671H629.315V146.065H636.948V157.671Z" fill="white" stroke="#1C0A39" stroke-width="2" mask="url(#path-1-inside-1_144_2063)"/>
<mask id="path-2-inside-2_144_2063" fill="white">
<path d="M660.475 55.0651V47.3479H664.995V11.4932H589.511V31.45H553.903C553.772 30.271 553.646 29.1325 553.506 27.8456C552.502 27.7016 551.53 27.5621 550.341 27.3911C550.228 26.2796 550.111 25.1412 549.972 23.7777C548.832 23.6562 547.693 23.5302 546.324 23.3817C546.198 22.2703 546.068 21.1363 545.906 19.7279C544.748 19.6064 543.542 19.4759 542.213 19.3364C542.069 18.1709 541.934 17.109 541.763 15.7365C539.313 15.5835 536.841 15.4305 534.248 15.2685C534.077 14.0131 533.924 12.8836 533.748 11.6057H435.357C435.227 12.7846 435.105 13.9186 434.957 15.273C433.817 15.3945 432.678 15.5115 431.314 15.6555C431.188 16.7805 431.057 17.9189 430.904 19.2869C429.805 19.4129 428.666 19.5479 427.248 19.7144C427.126 20.8573 426.996 22.0588 426.852 23.3772C425.766 23.5032 424.794 23.6202 423.691 23.7462C423.565 24.9747 423.443 26.1131 423.312 27.3911C422.097 27.5216 420.957 27.6431 419.652 27.7826C419.526 28.9795 419.404 30.118 419.264 31.441H415.509V11.6282H308.806C308.68 12.7891 308.554 13.9231 308.406 15.273C307.266 15.3945 306.123 15.5205 304.659 15.6735V23.3232H300.782C300.67 22.2163 300.553 21.0733 300.422 19.7684C299.427 19.6244 298.454 19.4849 297.252 19.3139C297.131 18.2249 297 17.0865 296.833 15.6105H289.21C289.048 14.1661 288.917 13.0321 288.742 11.4977H237.541C237.392 10.2017 237.288 9.29724 237.153 8.16328C236.158 8.01478 235.123 7.86179 233.961 7.6863C233.835 6.48034 233.713 5.33738 233.56 3.88393H225.919C225.757 2.43498 225.626 1.30102 225.478 0.00506592H55.7311C55.6005 1.16602 55.4745 2.29999 55.3124 3.75793H47.6711C47.509 5.18438 47.3784 6.31384 47.2298 7.6503C46.2933 7.78979 45.3251 7.93379 44.0283 8.13178C43.9203 10.3637 43.8077 12.6631 43.6861 15.192C42.4884 15.345 41.3537 15.4845 40.0209 15.6555C39.9038 16.8075 39.7822 17.9504 39.6336 19.4174H27.9354C27.7732 20.8438 27.6427 21.9733 27.4896 23.3232C26.553 23.4537 25.5804 23.5932 24.3376 23.7687C24.216 24.9027 24.081 26.1041 23.9414 27.4271C22.6896 27.5531 21.5459 27.6656 20.2716 27.7961C20.1455 29.0335 20.0284 30.172 19.8979 31.4455C18.6731 31.5805 17.5294 31.7019 16.2146 31.8459V130.005C17.3493 130.136 18.484 130.266 19.8483 130.419C19.9744 131.522 20.105 132.656 20.2716 134.064C21.4198 134.19 22.6266 134.321 23.9369 134.465C24.0674 135.554 24.18 136.521 24.3106 137.624C25.3868 137.745 26.3594 137.858 27.4626 137.984C27.5976 139.203 27.7237 140.342 27.8813 141.795H39.5886C39.7372 143.235 39.8543 144.373 39.9893 145.692C45.924 145.98 43.0828 150.475 44.1319 153.76H4.61086C4.28216 155.056 4.03901 156.01 3.74182 157.176C2.55309 157.464 1.35984 157.756 0 158.089V208.82C1.44089 208.946 2.74671 209.059 4.25514 209.194C4.31818 210.53 4.37672 211.768 4.43525 213.001H308.649V209.261C310.04 209.099 311.242 208.96 312.589 208.802V193.426C310.108 193.282 307.726 193.147 305.141 192.994C304.902 191.73 304.704 190.695 304.434 189.273H297.288C297.122 187.761 296.995 186.627 296.833 185.192H289.129V181.313H399.574C399.745 179.972 399.866 179.004 400.01 177.897C401.226 177.776 402.37 177.659 403.653 177.528C403.779 176.313 403.901 175.175 404.04 173.865H407.296V181.047H434.903C435.087 179.918 435.249 178.959 435.425 177.875C436.65 177.749 437.789 177.632 439.068 177.497C439.203 176.268 439.329 175.134 439.468 173.865C440.698 173.735 441.837 173.613 443.291 173.456V165.829C444.732 165.667 445.867 165.541 447.321 165.379V126.401H522.158V181.043H581.329C581.451 179.994 581.559 179.094 581.698 177.915C582.86 177.789 584.062 177.659 585.391 177.515C585.517 176.268 585.629 175.13 585.76 173.838H589.38V180.993H652.703C652.933 180.237 653.185 179.387 653.509 178.32C654.504 178.077 655.535 177.83 656.769 177.528C656.872 176.453 656.981 175.301 657.107 173.924C658.111 173.771 659.151 173.618 660.317 173.438C660.434 172.232 660.547 171.094 660.695 169.573H664.995V137.754C663.487 137.741 661.979 137.732 660.47 137.718V134.19H656.935V126.428C658.178 126.271 659.146 126.149 660.466 125.978V118.058H665V78.6668H640.933V55.0696H660.479L660.475 55.0651ZM312.989 19.8449C314.057 19.7234 315.191 19.5884 316.56 19.4309C316.691 18.3329 316.821 17.199 316.979 15.8985C324.255 15.8985 331.545 15.7545 338.804 16.146C339.457 16.182 340.398 19.6649 340.411 21.5548C340.524 43.163 340.483 64.7758 340.483 86.591H348.035V15.7365H371.661C371.859 16.8885 372.048 18.0044 372.26 19.2419C373.39 19.4129 374.453 19.5704 375.812 19.7774V66.8547H384.057V15.9075H410.988V90.6589H372.093C371.926 92.1978 371.805 93.3363 371.67 94.5872C370.414 94.7132 369.27 94.8257 368.005 94.9472C367.878 96.0272 367.761 96.9947 367.631 98.0971C366.411 98.2276 365.267 98.3491 363.975 98.4841C363.848 99.6856 363.727 100.824 363.592 102.102C362.57 102.246 361.597 102.381 360.417 102.543C360.3 103.677 360.188 104.815 360.048 106.174C358.9 106.296 357.756 106.413 356.392 106.557C356.266 107.686 356.14 108.825 355.987 110.188H316.979C316.817 109.108 316.646 107.983 316.457 106.723C315.344 106.575 314.282 106.431 312.985 106.255V19.8449H312.989ZM245.312 15.813H284.595C284.721 16.938 284.842 18.0764 285.005 19.5299H292.659C292.812 20.9563 292.934 22.0903 293.083 23.4447C294.213 23.5707 295.352 23.6922 296.721 23.8452C296.847 24.9477 296.977 26.0816 297.135 27.4496C298.112 27.5981 299.152 27.7511 300.319 27.9266C300.436 29.1325 300.548 30.271 300.674 31.5445C301.913 31.6749 303.052 31.7919 304.362 31.9314V62.8769H269.114V110.251H245.312V15.813ZM237.495 150.147C238.608 150.021 239.747 149.895 241.296 149.719V126.356H268.952C269.002 127.49 269.056 128.611 269.11 129.897C267.925 130.14 266.894 130.352 265.341 130.671V173.393H253.598V153.877H237.491V150.147H237.495ZM87.7145 15.759C88.6871 15.597 89.5831 15.4485 90.6998 15.264C90.8529 14.1751 91.006 13.0456 91.1906 11.7362C92.3749 11.6192 93.5186 11.5112 94.8379 11.3807C94.982 10.3952 95.1261 9.42323 95.3062 8.23078H225.342C225.496 9.16224 225.658 10.1252 225.874 11.4392H233.475V149.607C232.295 149.737 231.156 149.859 229.845 150.003C229.719 151.186 229.598 152.325 229.454 153.657H91.4158C91.1411 151.222 90.8844 148.941 90.6053 146.488C89.6462 146.187 88.7906 145.921 87.7145 145.588V15.759ZM103.119 180.903C101.664 181.056 100.529 181.178 99.2506 181.317C99.1201 182.532 98.9985 183.666 98.8589 184.958C97.6567 185.088 96.5174 185.214 95.063 185.372V193.008C93.6311 193.165 92.4919 193.287 91.1456 193.435C91.0285 194.587 90.9115 195.726 90.7764 197.067H87.692V161.716H245.245V173.478H103.119V180.899V180.903ZM296.739 193.516C296.869 194.713 296.995 195.852 297.158 197.305H304.331V204.685H158.426V197.364H150.983C150.844 195.883 150.74 194.817 150.596 193.318H142.901C142.757 191.833 142.653 190.767 142.523 189.421C141.338 189.295 140.127 189.169 138.794 189.025C138.65 187.873 138.515 186.811 138.339 185.417C136.061 185.291 133.756 185.165 131.243 185.025V181.412H268.912C269.051 182.667 269.177 183.806 269.335 185.25H276.985C277.152 186.685 277.282 187.819 277.444 189.246H284.563C284.878 190.452 285.126 191.397 285.549 193.026C289.125 193.183 292.835 193.345 296.734 193.516H296.739ZM320.572 169.312H308.779V145.993H300.665V169.294H289.071V137.93H284.833V169.366H273.513V126.401H292.7C292.83 127.589 292.952 128.723 293.092 130.01C294.294 130.14 295.438 130.262 296.748 130.401C296.874 131.589 296.995 132.728 297.144 134.087H320.577V169.312H320.572ZM320.572 130.334C319.352 130.203 302.133 130.082 300.8 129.938C300.67 128.773 300.548 127.639 300.404 126.347C299.404 126.194 298.432 126.05 297.257 125.87C297.14 124.75 297.022 123.607 296.869 122.144H273.495V114.774C274.657 114.643 275.792 114.517 277.251 114.355V82.9506H304.542V126.163H320.572V130.329V130.334ZM372.012 130.199H352.209C352.209 131.477 352.209 132.759 352.209 134.1H372.012V169.312H360.422V146.007H356.18V169.375H340.704V137.934H336.462V169.366H324.634V126.491H347.557C347.819 127.783 348.026 128.818 348.296 130.149H352.155C352.222 128.926 352.29 127.702 352.366 126.374C353.677 126.244 354.816 126.131 356.09 126.001C356.216 124.754 356.333 123.62 356.459 122.342C357.689 122.216 358.828 122.099 360.116 121.969C360.246 120.758 360.363 119.62 360.503 118.342C361.525 118.202 362.498 118.067 363.632 117.91C363.772 116.938 363.907 115.966 364.078 114.774C365.186 114.661 366.325 114.54 367.694 114.4C367.82 113.275 367.951 112.141 368.113 110.746C369.265 110.62 370.472 110.485 371.782 110.341C371.917 109.086 372.035 107.947 372.174 106.66H411.227V125.929C412.735 126.104 413.938 126.239 415.419 126.41V134.19H411.375V137.718H407.382V134.19H403.838V126.109H399.794V122.239H372.012V130.203V130.199ZM403.946 165.662C403.797 166.891 403.662 168.025 403.505 169.357H376.245V126.158H399.736V134.244H403.784V137.777H407.327V165.244C406.008 165.406 405.036 165.527 403.946 165.662ZM443.075 161.275C441.868 161.468 440.815 161.639 439.604 161.833C439.432 162.935 439.27 163.993 439.068 165.271C437.874 165.397 436.663 165.523 435.335 165.667C435.204 166.913 435.083 168.052 434.943 169.375H411.43V137.781H415.482V134.244H419.539V126.415H443.017V149.62H431.201V137.876H423.718V161.284H431.138V154.161H443.08V161.275H443.075ZM482.52 106.156C481.362 106.39 480.178 106.633 478.98 106.876C478.818 108.204 478.71 109.113 478.575 110.22H455.062V39.4282H447.366V106.183C445.889 106.318 444.813 106.417 443.471 106.539C443.336 107.713 443.197 108.915 443.044 110.26H419.791V35.4773C420.993 35.3513 422.133 35.2298 423.416 35.0948C423.542 34.0419 423.655 33.0699 423.79 31.9674C424.825 31.8324 425.802 31.7019 426.955 31.5535C427.072 30.388 427.189 29.2495 427.329 27.9086C428.495 27.7871 429.634 27.6701 430.994 27.5306C431.116 26.3831 431.233 25.2447 431.377 23.8857C432.507 23.7597 433.646 23.6382 435.015 23.4852C435.146 22.3828 435.276 21.2488 435.443 19.8359C436.587 19.7099 437.793 19.5794 439.113 19.4354C439.257 18.1934 439.387 17.0595 439.536 15.768H478.458C478.656 16.8885 478.854 17.9999 479.07 19.2374C480.201 19.4084 481.259 19.5659 482.52 19.7594V106.156ZM553.389 161.468V169.379H526.598V145.975H541.88V137.727H526.553V126.428H545.793C545.91 127.517 546.032 128.651 546.203 130.203H550.071V134.235H553.605V153.774H538.066V161.464H553.385L553.389 161.468ZM561.544 129.911C560.391 130.037 559.256 130.163 557.892 130.311C557.761 131.409 557.626 132.543 557.451 134.006C556.23 134.064 554.956 134.123 553.677 134.186V130.145H550.129V126.352H561.548V129.911H561.544ZM589.281 165.244C588.227 165.37 587.097 165.5 585.697 165.667C585.566 166.805 585.431 168.007 585.273 169.379H562.03V134.483C563.097 134.357 564.227 134.226 565.596 134.064C565.727 132.975 565.862 131.841 566.033 130.401C567.298 130.275 568.438 130.163 569.698 130.037C569.829 128.786 569.946 127.652 570.081 126.356H589.276V165.244H589.281ZM589.326 106.206C587.989 106.332 586.917 106.435 585.692 106.548C585.562 107.763 585.436 108.901 585.292 110.224H561.791V59.115H550.165V110.179H526.422V39.4282H514.251V110.188H490.625V15.768H530.074C530.218 16.938 530.357 18.0674 530.537 19.5389H537.656C537.814 20.9968 537.936 22.1308 538.075 23.4672C539.219 23.6112 540.349 23.7552 541.659 23.9217C541.808 25.0917 541.948 26.2256 542.11 27.5036C543.316 27.6296 544.46 27.7466 545.788 27.8816C545.91 29.0605 546.032 30.1945 546.171 31.5445C547.333 31.6614 548.472 31.7784 549.791 31.9134C549.936 32.8899 550.08 33.8574 550.318 35.4368C562.246 35.4368 574.26 35.3828 586.273 35.5313C587.3 35.5448 589.191 36.9083 589.195 37.6552C589.353 60.4379 589.322 83.2206 589.322 106.21L589.326 106.206ZM624.804 153.76H605.442V161.369H624.709V169.334H594V146.029H613.213V137.61H594.009V126.424H616.55C617.703 129.236 615.105 134.267 621.008 134.379C621.008 135.365 621.008 136.355 621.008 137.579C622.25 137.718 623.453 137.853 624.799 138.006V153.765L624.804 153.76ZM621.062 134.312V126.401H624.925C624.376 129.501 626.87 133.79 621.062 134.312ZM657.062 165.662C656.931 166.877 656.805 168.011 656.661 169.357H629.288V161.653H648.623V153.886H640.942V146.016H648.614V137.741H629.306V126.433H652.698V134.24H656.877V137.777H660.421V165.248C659.133 165.406 658.165 165.527 657.062 165.662ZM629.32 157.666V146.061H636.952V157.666H629.32ZM636.88 54.8401V70.9811H621.111V86.672H656.629V110.233H597.377V15.795H656.602V39.1582H621.116V54.8491H636.88V54.8401Z"/>
</mask>
<path d="M660.475 55.0651V47.3479H664.995V11.4932H589.511V31.45H553.903C553.772 30.271 553.646 29.1325 553.506 27.8456C552.502 27.7016 551.53 27.5621 550.341 27.3911C550.228 26.2796 550.111 25.1412 549.972 23.7777C548.832 23.6562 547.693 23.5302 546.324 23.3817C546.198 22.2703 546.068 21.1363 545.906 19.7279C544.748 19.6064 543.542 19.4759 542.213 19.3364C542.069 18.1709 541.934 17.109 541.763 15.7365C539.313 15.5835 536.841 15.4305 534.248 15.2685C534.077 14.0131 533.924 12.8836 533.748 11.6057H435.357C435.227 12.7846 435.105 13.9186 434.957 15.273C433.817 15.3945 432.678 15.5115 431.314 15.6555C431.188 16.7805 431.057 17.9189 430.904 19.2869C429.805 19.4129 428.666 19.5479 427.248 19.7144C427.126 20.8573 426.996 22.0588 426.852 23.3772C425.766 23.5032 424.794 23.6202 423.691 23.7462C423.565 24.9747 423.443 26.1131 423.312 27.3911C422.097 27.5216 420.957 27.6431 419.652 27.7826C419.526 28.9795 419.404 30.118 419.264 31.441H415.509V11.6282H308.806C308.68 12.7891 308.554 13.9231 308.406 15.273C307.266 15.3945 306.123 15.5205 304.659 15.6735V23.3232H300.782C300.67 22.2163 300.553 21.0733 300.422 19.7684C299.427 19.6244 298.454 19.4849 297.252 19.3139C297.131 18.2249 297 17.0865 296.833 15.6105H289.21C289.048 14.1661 288.917 13.0321 288.742 11.4977H237.541C237.392 10.2017 237.288 9.29724 237.153 8.16328C236.158 8.01478 235.123 7.86179 233.961 7.6863C233.835 6.48034 233.713 5.33738 233.56 3.88393H225.919C225.757 2.43498 225.626 1.30102 225.478 0.00506592H55.7311C55.6005 1.16602 55.4745 2.29999 55.3124 3.75793H47.6711C47.509 5.18438 47.3784 6.31384 47.2298 7.6503C46.2933 7.78979 45.3251 7.93379 44.0283 8.13178C43.9203 10.3637 43.8077 12.6631 43.6861 15.192C42.4884 15.345 41.3537 15.4845 40.0209 15.6555C39.9038 16.8075 39.7822 17.9504 39.6336 19.4174H27.9354C27.7732 20.8438 27.6427 21.9733 27.4896 23.3232C26.553 23.4537 25.5804 23.5932 24.3376 23.7687C24.216 24.9027 24.081 26.1041 23.9414 27.4271C22.6896 27.5531 21.5459 27.6656 20.2716 27.7961C20.1455 29.0335 20.0284 30.172 19.8979 31.4455C18.6731 31.5805 17.5294 31.7019 16.2146 31.8459V130.005C17.3493 130.136 18.484 130.266 19.8483 130.419C19.9744 131.522 20.105 132.656 20.2716 134.064C21.4198 134.19 22.6266 134.321 23.9369 134.465C24.0674 135.554 24.18 136.521 24.3106 137.624C25.3868 137.745 26.3594 137.858 27.4626 137.984C27.5976 139.203 27.7237 140.342 27.8813 141.795H39.5886C39.7372 143.235 39.8543 144.373 39.9893 145.692C45.924 145.98 43.0828 150.475 44.1319 153.76H4.61086C4.28216 155.056 4.03901 156.01 3.74182 157.176C2.55309 157.464 1.35984 157.756 0 158.089V208.82C1.44089 208.946 2.74671 209.059 4.25514 209.194C4.31818 210.53 4.37672 211.768 4.43525 213.001H308.649V209.261C310.04 209.099 311.242 208.96 312.589 208.802V193.426C310.108 193.282 307.726 193.147 305.141 192.994C304.902 191.73 304.704 190.695 304.434 189.273H297.288C297.122 187.761 296.995 186.627 296.833 185.192H289.129V181.313H399.574C399.745 179.972 399.866 179.004 400.01 177.897C401.226 177.776 402.37 177.659 403.653 177.528C403.779 176.313 403.901 175.175 404.04 173.865H407.296V181.047H434.903C435.087 179.918 435.249 178.959 435.425 177.875C436.65 177.749 437.789 177.632 439.068 177.497C439.203 176.268 439.329 175.134 439.468 173.865C440.698 173.735 441.837 173.613 443.291 173.456V165.829C444.732 165.667 445.867 165.541 447.321 165.379V126.401H522.158V181.043H581.329C581.451 179.994 581.559 179.094 581.698 177.915C582.86 177.789 584.062 177.659 585.391 177.515C585.517 176.268 585.629 175.13 585.76 173.838H589.38V180.993H652.703C652.933 180.237 653.185 179.387 653.509 178.32C654.504 178.077 655.535 177.83 656.769 177.528C656.872 176.453 656.981 175.301 657.107 173.924C658.111 173.771 659.151 173.618 660.317 173.438C660.434 172.232 660.547 171.094 660.695 169.573H664.995V137.754C663.487 137.741 661.979 137.732 660.47 137.718V134.19H656.935V126.428C658.178 126.271 659.146 126.149 660.466 125.978V118.058H665V78.6668H640.933V55.0696H660.479L660.475 55.0651ZM312.989 19.8449C314.057 19.7234 315.191 19.5884 316.56 19.4309C316.691 18.3329 316.821 17.199 316.979 15.8985C324.255 15.8985 331.545 15.7545 338.804 16.146C339.457 16.182 340.398 19.6649 340.411 21.5548C340.524 43.163 340.483 64.7758 340.483 86.591H348.035V15.7365H371.661C371.859 16.8885 372.048 18.0044 372.26 19.2419C373.39 19.4129 374.453 19.5704 375.812 19.7774V66.8547H384.057V15.9075H410.988V90.6589H372.093C371.926 92.1978 371.805 93.3363 371.67 94.5872C370.414 94.7132 369.27 94.8257 368.005 94.9472C367.878 96.0272 367.761 96.9947 367.631 98.0971C366.411 98.2276 365.267 98.3491 363.975 98.4841C363.848 99.6856 363.727 100.824 363.592 102.102C362.57 102.246 361.597 102.381 360.417 102.543C360.3 103.677 360.188 104.815 360.048 106.174C358.9 106.296 357.756 106.413 356.392 106.557C356.266 107.686 356.14 108.825 355.987 110.188H316.979C316.817 109.108 316.646 107.983 316.457 106.723C315.344 106.575 314.282 106.431 312.985 106.255V19.8449H312.989ZM245.312 15.813H284.595C284.721 16.938 284.842 18.0764 285.005 19.5299H292.659C292.812 20.9563 292.934 22.0903 293.083 23.4447C294.213 23.5707 295.352 23.6922 296.721 23.8452C296.847 24.9477 296.977 26.0816 297.135 27.4496C298.112 27.5981 299.152 27.7511 300.319 27.9266C300.436 29.1325 300.548 30.271 300.674 31.5445C301.913 31.6749 303.052 31.7919 304.362 31.9314V62.8769H269.114V110.251H245.312V15.813ZM237.495 150.147C238.608 150.021 239.747 149.895 241.296 149.719V126.356H268.952C269.002 127.49 269.056 128.611 269.11 129.897C267.925 130.14 266.894 130.352 265.341 130.671V173.393H253.598V153.877H237.491V150.147H237.495ZM87.7145 15.759C88.6871 15.597 89.5831 15.4485 90.6998 15.264C90.8529 14.1751 91.006 13.0456 91.1906 11.7362C92.3749 11.6192 93.5186 11.5112 94.8379 11.3807C94.982 10.3952 95.1261 9.42323 95.3062 8.23078H225.342C225.496 9.16224 225.658 10.1252 225.874 11.4392H233.475V149.607C232.295 149.737 231.156 149.859 229.845 150.003C229.719 151.186 229.598 152.325 229.454 153.657H91.4158C91.1411 151.222 90.8844 148.941 90.6053 146.488C89.6462 146.187 88.7906 145.921 87.7145 145.588V15.759ZM103.119 180.903C101.664 181.056 100.529 181.178 99.2506 181.317C99.1201 182.532 98.9985 183.666 98.8589 184.958C97.6567 185.088 96.5174 185.214 95.063 185.372V193.008C93.6311 193.165 92.4919 193.287 91.1456 193.435C91.0285 194.587 90.9115 195.726 90.7764 197.067H87.692V161.716H245.245V173.478H103.119V180.899V180.903ZM296.739 193.516C296.869 194.713 296.995 195.852 297.158 197.305H304.331V204.685H158.426V197.364H150.983C150.844 195.883 150.74 194.817 150.596 193.318H142.901C142.757 191.833 142.653 190.767 142.523 189.421C141.338 189.295 140.127 189.169 138.794 189.025C138.65 187.873 138.515 186.811 138.339 185.417C136.061 185.291 133.756 185.165 131.243 185.025V181.412H268.912C269.051 182.667 269.177 183.806 269.335 185.25H276.985C277.152 186.685 277.282 187.819 277.444 189.246H284.563C284.878 190.452 285.126 191.397 285.549 193.026C289.125 193.183 292.835 193.345 296.734 193.516H296.739ZM320.572 169.312H308.779V145.993H300.665V169.294H289.071V137.93H284.833V169.366H273.513V126.401H292.7C292.83 127.589 292.952 128.723 293.092 130.01C294.294 130.14 295.438 130.262 296.748 130.401C296.874 131.589 296.995 132.728 297.144 134.087H320.577V169.312H320.572ZM320.572 130.334C319.352 130.203 302.133 130.082 300.8 129.938C300.67 128.773 300.548 127.639 300.404 126.347C299.404 126.194 298.432 126.05 297.257 125.87C297.14 124.75 297.022 123.607 296.869 122.144H273.495V114.774C274.657 114.643 275.792 114.517 277.251 114.355V82.9506H304.542V126.163H320.572V130.329V130.334ZM372.012 130.199H352.209C352.209 131.477 352.209 132.759 352.209 134.1H372.012V169.312H360.422V146.007H356.18V169.375H340.704V137.934H336.462V169.366H324.634V126.491H347.557C347.819 127.783 348.026 128.818 348.296 130.149H352.155C352.222 128.926 352.29 127.702 352.366 126.374C353.677 126.244 354.816 126.131 356.09 126.001C356.216 124.754 356.333 123.62 356.459 122.342C357.689 122.216 358.828 122.099 360.116 121.969C360.246 120.758 360.363 119.62 360.503 118.342C361.525 118.202 362.498 118.067 363.632 117.91C363.772 116.938 363.907 115.966 364.078 114.774C365.186 114.661 366.325 114.54 367.694 114.4C367.82 113.275 367.951 112.141 368.113 110.746C369.265 110.62 370.472 110.485 371.782 110.341C371.917 109.086 372.035 107.947 372.174 106.66H411.227V125.929C412.735 126.104 413.938 126.239 415.419 126.41V134.19H411.375V137.718H407.382V134.19H403.838V126.109H399.794V122.239H372.012V130.203V130.199ZM403.946 165.662C403.797 166.891 403.662 168.025 403.505 169.357H376.245V126.158H399.736V134.244H403.784V137.777H407.327V165.244C406.008 165.406 405.036 165.527 403.946 165.662ZM443.075 161.275C441.868 161.468 440.815 161.639 439.604 161.833C439.432 162.935 439.27 163.993 439.068 165.271C437.874 165.397 436.663 165.523 435.335 165.667C435.204 166.913 435.083 168.052 434.943 169.375H411.43V137.781H415.482V134.244H419.539V126.415H443.017V149.62H431.201V137.876H423.718V161.284H431.138V154.161H443.08V161.275H443.075ZM482.52 106.156C481.362 106.39 480.178 106.633 478.98 106.876C478.818 108.204 478.71 109.113 478.575 110.22H455.062V39.4282H447.366V106.183C445.889 106.318 444.813 106.417 443.471 106.539C443.336 107.713 443.197 108.915 443.044 110.26H419.791V35.4773C420.993 35.3513 422.133 35.2298 423.416 35.0948C423.542 34.0419 423.655 33.0699 423.79 31.9674C424.825 31.8324 425.802 31.7019 426.955 31.5535C427.072 30.388 427.189 29.2495 427.329 27.9086C428.495 27.7871 429.634 27.6701 430.994 27.5306C431.116 26.3831 431.233 25.2447 431.377 23.8857C432.507 23.7597 433.646 23.6382 435.015 23.4852C435.146 22.3828 435.276 21.2488 435.443 19.8359C436.587 19.7099 437.793 19.5794 439.113 19.4354C439.257 18.1934 439.387 17.0595 439.536 15.768H478.458C478.656 16.8885 478.854 17.9999 479.07 19.2374C480.201 19.4084 481.259 19.5659 482.52 19.7594V106.156ZM553.389 161.468V169.379H526.598V145.975H541.88V137.727H526.553V126.428H545.793C545.91 127.517 546.032 128.651 546.203 130.203H550.071V134.235H553.605V153.774H538.066V161.464H553.385L553.389 161.468ZM561.544 129.911C560.391 130.037 559.256 130.163 557.892 130.311C557.761 131.409 557.626 132.543 557.451 134.006C556.23 134.064 554.956 134.123 553.677 134.186V130.145H550.129V126.352H561.548V129.911H561.544ZM589.281 165.244C588.227 165.37 587.097 165.5 585.697 165.667C585.566 166.805 585.431 168.007 585.273 169.379H562.03V134.483C563.097 134.357 564.227 134.226 565.596 134.064C565.727 132.975 565.862 131.841 566.033 130.401C567.298 130.275 568.438 130.163 569.698 130.037C569.829 128.786 569.946 127.652 570.081 126.356H589.276V165.244H589.281ZM589.326 106.206C587.989 106.332 586.917 106.435 585.692 106.548C585.562 107.763 585.436 108.901 585.292 110.224H561.791V59.115H550.165V110.179H526.422V39.4282H514.251V110.188H490.625V15.768H530.074C530.218 16.938 530.357 18.0674 530.537 19.5389H537.656C537.814 20.9968 537.936 22.1308 538.075 23.4672C539.219 23.6112 540.349 23.7552 541.659 23.9217C541.808 25.0917 541.948 26.2256 542.11 27.5036C543.316 27.6296 544.46 27.7466 545.788 27.8816C545.91 29.0605 546.032 30.1945 546.171 31.5445C547.333 31.6614 548.472 31.7784 549.791 31.9134C549.936 32.8899 550.08 33.8574 550.318 35.4368C562.246 35.4368 574.26 35.3828 586.273 35.5313C587.3 35.5448 589.191 36.9083 589.195 37.6552C589.353 60.4379 589.322 83.2206 589.322 106.21L589.326 106.206ZM624.804 153.76H605.442V161.369H624.709V169.334H594V146.029H613.213V137.61H594.009V126.424H616.55C617.703 129.236 615.105 134.267 621.008 134.379C621.008 135.365 621.008 136.355 621.008 137.579C622.25 137.718 623.453 137.853 624.799 138.006V153.765L624.804 153.76ZM621.062 134.312V126.401H624.925C624.376 129.501 626.87 133.79 621.062 134.312ZM657.062 165.662C656.931 166.877 656.805 168.011 656.661 169.357H629.288V161.653H648.623V153.886H640.942V146.016H648.614V137.741H629.306V126.433H652.698V134.24H656.877V137.777H660.421V165.248C659.133 165.406 658.165 165.527 657.062 165.662ZM629.32 157.666V146.061H636.952V157.666H629.32ZM636.88 54.8401V70.9811H621.111V86.672H656.629V110.233H597.377V15.795H656.602V39.1582H621.116V54.8491H636.88V54.8401Z" fill="#1C0A39" stroke="#C1ABED" stroke-width="2" stroke-linejoin="round" mask="url(#path-2-inside-2_144_2063)"/>
<mask id="path-3-inside-3_144_2063" fill="white">
<path d="M352.21 130.149H352.159C352.159 130.149 352.159 130.186 352.159 130.199H352.21V130.149Z"/>
</mask>
<path d="M352.21 130.149H352.159C352.159 130.149 352.159 130.186 352.159 130.199H352.21V130.149Z" fill="#1C0A39"/>
<path d="M352.21 130.149H353.21C353.21 129.597 352.762 129.149 352.21 129.149V130.149ZM352.159 130.149V129.149C351.607 129.149 351.159 129.597 351.159 130.149H352.159ZM352.159 130.199H351.159C351.159 130.752 351.607 131.199 352.159 131.199V130.199ZM352.21 130.199V131.199C352.762 131.199 353.21 130.752 353.21 130.199H352.21ZM352.21 129.149H352.159V131.149H352.21V129.149ZM352.159 130.149C351.159 130.149 351.159 130.149 351.159 130.149C351.159 130.149 351.159 130.149 351.159 130.149C351.159 130.149 351.159 130.149 351.159 130.149C351.159 130.149 351.159 130.149 351.159 130.149C351.159 130.149 351.159 130.149 351.159 130.149C351.159 130.149 351.159 130.149 351.159 130.149C351.159 130.149 351.159 130.149 351.159 130.149C351.159 130.149 351.159 130.149 351.159 130.149C351.159 130.149 351.159 130.149 351.159 130.149C351.159 130.149 351.159 130.149 351.159 130.149C351.159 130.149 351.159 130.149 351.159 130.149C351.159 130.149 351.159 130.149 351.159 130.149C351.159 130.149 351.159 130.149 351.159 130.149C351.159 130.149 351.159 130.149 351.159 130.149C351.159 130.149 351.159 130.149 351.159 130.149C351.159 130.149 351.159 130.149 351.159 130.149C351.159 130.149 351.159 130.149 351.159 130.149C351.159 130.149 351.159 130.149 351.159 130.149C351.159 130.149 351.159 130.149 351.159 130.149C351.159 130.149 351.159 130.149 351.159 130.149C351.159 130.149 351.159 130.149 351.159 130.149C351.159 130.149 351.159 130.149 351.159 130.149C351.159 130.149 351.159 130.149 351.159 130.149C351.159 130.149 351.159 130.149 351.159 130.149C351.159 130.149 351.159 130.149 351.159 130.149C351.159 130.149 351.159 130.149 351.159 130.149C351.159 130.149 351.159 130.149 351.159 130.149C351.159 130.149 351.159 130.149 351.159 130.149C351.159 130.149 351.159 130.149 351.159 130.149C351.159 130.149 351.159 130.149 351.159 130.149C351.159 130.149 351.159 130.149 351.159 130.149C351.159 130.149 351.159 130.149 351.159 130.149C351.159 130.149 351.159 130.149 351.159 130.149C351.159 130.149 351.159 130.149 351.159 130.149C351.159 130.149 351.159 130.149 351.159 130.149C351.159 130.149 351.159 130.149 351.159 130.149C351.159 130.149 351.159 130.149 351.159 130.149C351.159 130.149 351.159 130.149 351.159 130.149C351.159 130.15 351.159 130.15 351.159 130.15C351.159 130.15 351.159 130.15 351.159 130.15C351.159 130.15 351.159 130.15 351.159 130.15C351.159 130.15 351.159 130.15 351.159 130.15C351.159 130.15 351.159 130.15 351.159 130.15C351.159 130.15 351.159 130.15 351.159 130.15C351.159 130.15 351.159 130.15 351.159 130.15C351.159 130.15 351.159 130.15 351.159 130.15C351.159 130.15 351.159 130.15 351.159 130.15C351.159 130.15 351.159 130.15 351.159 130.15C351.159 130.15 351.159 130.15 351.159 130.15C351.159 130.15 351.159 130.15 351.159 130.15C351.159 130.15 351.159 130.15 351.159 130.15C351.159 130.15 351.159 130.15 351.159 130.15C351.159 130.15 351.159 130.15 351.159 130.15C351.159 130.15 351.159 130.15 351.159 130.15C351.159 130.15 351.159 130.15 351.159 130.15C351.159 130.15 351.159 130.15 351.159 130.15C351.159 130.15 351.159 130.15 351.159 130.15C351.159 130.15 351.159 130.15 351.159 130.15C351.159 130.15 351.159 130.15 351.159 130.15C351.159 130.15 351.159 130.15 351.159 130.15C351.159 130.15 351.159 130.15 351.159 130.15C351.159 130.15 351.159 130.15 351.159 130.15C351.159 130.15 351.159 130.15 351.159 130.15C351.159 130.15 351.159 130.15 351.159 130.151C351.159 130.151 351.159 130.151 351.159 130.151C351.159 130.151 351.159 130.151 351.159 130.151C351.159 130.151 351.159 130.151 351.159 130.151C351.159 130.151 351.159 130.151 351.159 130.151C351.159 130.151 351.159 130.151 351.159 130.151C351.159 130.151 351.159 130.151 351.159 130.151C351.159 130.151 351.159 130.151 351.159 130.151C351.159 130.151 351.159 130.151 351.159 130.151C351.159 130.151 351.159 130.151 351.159 130.151C351.159 130.151 351.159 130.151 351.159 130.151C351.159 130.151 351.159 130.151 351.159 130.151C351.159 130.151 351.159 130.151 351.159 130.151C351.159 130.151 351.159 130.151 351.159 130.151C351.159 130.151 351.159 130.151 351.159 130.151C351.159 130.151 351.159 130.151 351.159 130.151C351.159 130.151 351.159 130.151 351.159 130.151C351.159 130.151 351.159 130.151 351.159 130.151C351.159 130.151 351.159 130.151 351.159 130.151C351.159 130.152 351.159 130.152 351.159 130.152C351.159 130.152 351.159 130.152 351.159 130.152C351.159 130.152 351.159 130.152 351.159 130.152C351.159 130.152 351.159 130.152 351.159 130.152C351.159 130.152 351.159 130.152 351.159 130.152C351.159 130.152 351.159 130.152 351.159 130.152C351.159 130.152 351.159 130.152 351.159 130.152C351.159 130.152 351.159 130.152 351.159 130.152C351.159 130.152 351.159 130.152 351.159 130.152C351.159 130.152 351.159 130.152 351.159 130.152C351.159 130.152 351.159 130.152 351.159 130.152C351.159 130.152 351.159 130.152 351.159 130.152C351.159 130.152 351.159 130.152 351.159 130.152C351.159 130.152 351.159 130.152 351.159 130.152C351.159 130.152 351.159 130.152 351.159 130.152C351.159 130.152 351.159 130.153 351.159 130.153C351.159 130.153 351.159 130.153 351.159 130.153C351.159 130.153 351.159 130.153 351.159 130.153C351.159 130.153 351.159 130.153 351.159 130.153C351.159 130.153 351.159 130.153 351.159 130.153C351.159 130.153 351.159 130.153 351.159 130.153C351.159 130.153 351.159 130.153 351.159 130.153C351.159 130.153 351.159 130.153 351.159 130.153C351.159 130.153 351.159 130.153 351.159 130.153C351.159 130.153 351.159 130.153 351.159 130.153C351.159 130.153 351.159 130.153 351.159 130.153C351.159 130.153 351.159 130.153 351.159 130.153C351.159 130.153 351.159 130.153 351.159 130.153C351.159 130.153 351.159 130.153 351.159 130.153C351.159 130.154 351.159 130.154 351.159 130.154C351.159 130.154 351.159 130.154 351.159 130.154C351.159 130.154 351.159 130.154 351.159 130.154C351.159 130.154 351.159 130.154 351.159 130.154C351.159 130.154 351.159 130.154 351.159 130.154C351.159 130.154 351.159 130.154 351.159 130.154C351.159 130.154 351.159 130.154 351.159 130.154C351.159 130.154 351.159 130.154 351.159 130.154C351.159 130.154 351.159 130.154 351.159 130.154C351.159 130.154 351.159 130.154 351.159 130.154C351.159 130.154 351.159 130.154 351.159 130.154C351.159 130.154 351.159 130.154 351.159 130.154C351.159 130.154 351.159 130.154 351.159 130.155C351.159 130.155 351.159 130.155 351.159 130.155C351.159 130.155 351.159 130.155 351.159 130.155C351.159 130.155 351.159 130.155 351.159 130.155C351.159 130.155 351.159 130.155 351.159 130.155C351.159 130.155 351.159 130.155 351.159 130.155C351.159 130.155 351.159 130.155 351.159 130.155C351.159 130.155 351.159 130.155 351.159 130.155C351.159 130.155 351.159 130.155 351.159 130.155C351.159 130.155 351.159 130.155 351.159 130.155C351.159 130.155 351.159 130.155 351.159 130.155C351.159 130.155 351.159 130.155 351.159 130.155C351.159 130.156 351.159 130.156 351.159 130.156C351.159 130.156 351.159 130.156 351.159 130.156C351.159 130.156 351.159 130.156 351.159 130.156C351.159 130.156 351.159 130.156 351.159 130.156C351.159 130.156 351.159 130.156 351.159 130.156C351.159 130.156 351.159 130.156 351.159 130.156C351.159 130.156 351.159 130.156 351.159 130.156C351.159 130.156 351.159 130.156 351.159 130.156C351.159 130.156 351.159 130.156 351.159 130.156C351.159 130.156 351.159 130.156 351.159 130.156C351.159 130.156 351.159 130.156 351.159 130.156C351.159 130.157 351.159 130.157 351.159 130.157C351.159 130.157 351.159 130.157 351.159 130.157C351.159 130.157 351.159 130.157 351.159 130.157C351.159 130.157 351.159 130.157 351.159 130.157C351.159 130.157 351.159 130.157 351.159 130.157C351.159 130.157 351.159 130.157 351.159 130.157C351.159 130.157 351.159 130.157 351.159 130.157C351.159 130.157 351.159 130.157 351.159 130.157C351.159 130.157 351.159 130.157 351.159 130.157C351.159 130.157 351.159 130.157 351.159 130.157C351.159 130.157 351.159 130.158 351.159 130.158C351.159 130.158 351.159 130.158 351.159 130.158C351.159 130.158 351.159 130.158 351.159 130.158C351.159 130.158 351.159 130.158 351.159 130.158C351.159 130.158 351.159 130.158 351.159 130.158C351.159 130.158 351.159 130.158 351.159 130.158C351.159 130.158 351.159 130.158 351.159 130.158C351.159 130.158 351.159 130.158 351.159 130.158C351.159 130.158 351.159 130.158 351.159 130.158C351.159 130.158 351.159 130.158 351.159 130.158C351.159 130.158 351.159 130.159 351.159 130.159C351.159 130.159 351.159 130.159 351.159 130.159C351.159 130.159 351.159 130.159 351.159 130.159C351.159 130.159 351.159 130.159 351.159 130.159C351.159 130.159 351.159 130.159 351.159 130.159C351.159 130.159 351.159 130.159 351.159 130.159C351.159 130.159 351.159 130.159 351.159 130.159C351.159 130.159 351.159 130.159 351.159 130.159C351.159 130.159 351.159 130.159 351.159 130.159C351.159 130.159 351.159 130.159 351.159 130.16C351.159 130.16 351.159 130.16 351.159 130.16C351.159 130.16 351.159 130.16 351.159 130.16C351.159 130.16 351.159 130.16 351.159 130.16C351.159 130.16 351.159 130.16 351.159 130.16C351.159 130.16 351.159 130.16 351.159 130.16C351.159 130.16 351.159 130.16 351.159 130.16C351.159 130.16 351.159 130.16 351.159 130.16C351.159 130.16 351.159 130.16 351.159 130.16C351.159 130.16 351.159 130.16 351.159 130.16C351.159 130.161 351.159 130.161 351.159 130.161C351.159 130.161 351.159 130.161 351.159 130.161C351.159 130.161 351.159 130.161 351.159 130.161C351.159 130.161 351.159 130.161 351.159 130.161C351.159 130.161 351.159 130.161 351.159 130.161C351.159 130.161 351.159 130.161 351.159 130.161C351.159 130.161 351.159 130.161 351.159 130.161C351.159 130.161 351.159 130.161 351.159 130.161C351.159 130.161 351.159 130.161 351.159 130.161C351.159 130.162 351.159 130.162 351.159 130.162C351.159 130.162 351.159 130.162 351.159 130.162C351.159 130.162 351.159 130.162 351.159 130.162C351.159 130.162 351.159 130.162 351.159 130.162C351.159 130.162 351.159 130.162 351.159 130.162C351.159 130.162 351.159 130.162 351.159 130.162C351.159 130.162 351.159 130.162 351.159 130.162C351.159 130.162 351.159 130.162 351.159 130.162C351.159 130.162 351.159 130.162 351.159 130.163C351.159 130.163 351.159 130.163 351.159 130.163C351.159 130.163 351.159 130.163 351.159 130.163C351.159 130.163 351.159 130.163 351.159 130.163C351.159 130.163 351.159 130.163 351.159 130.163C351.159 130.163 351.159 130.163 351.159 130.163C351.159 130.163 351.159 130.163 351.159 130.163C351.159 130.163 351.159 130.163 351.159 130.163C351.159 130.163 351.159 130.163 351.159 130.163C351.159 130.163 351.159 130.164 351.159 130.164C351.159 130.164 351.159 130.164 351.159 130.164C351.159 130.164 351.159 130.164 351.159 130.164C351.159 130.164 351.159 130.164 351.159 130.164C351.159 130.164 351.159 130.164 351.159 130.164C351.159 130.164 351.159 130.164 351.159 130.164C351.159 130.164 351.159 130.164 351.159 130.164C351.159 130.164 351.159 130.164 351.159 130.164C351.159 130.164 351.159 130.164 351.159 130.165C351.159 130.165 351.159 130.165 351.159 130.165C351.159 130.165 351.159 130.165 351.159 130.165C351.159 130.165 351.159 130.165 351.159 130.165C351.159 130.165 351.159 130.165 351.159 130.165C351.159 130.165 351.159 130.165 351.159 130.165C351.159 130.165 351.159 130.165 351.159 130.165C351.159 130.165 351.159 130.165 351.159 130.165C351.159 130.165 351.159 130.165 351.159 130.165C351.159 130.166 351.159 130.166 351.159 130.166C351.159 130.166 351.159 130.166 351.159 130.166C351.159 130.166 351.159 130.166 351.159 130.166C351.159 130.166 351.159 130.166 351.159 130.166C351.159 130.166 351.159 130.166 351.159 130.166C351.159 130.166 351.159 130.166 351.159 130.166C351.159 130.166 351.159 130.166 351.159 130.166C351.159 130.166 351.159 130.166 351.159 130.166C351.159 130.167 351.159 130.167 351.159 130.167C351.159 130.167 351.159 130.167 351.159 130.167C351.159 130.167 351.159 130.167 351.159 130.167C351.159 130.167 351.159 130.167 351.159 130.167C351.159 130.167 351.159 130.167 351.159 130.167C351.159 130.167 351.159 130.167 351.159 130.167C351.159 130.167 351.159 130.167 351.159 130.167C351.159 130.167 351.159 130.167 351.159 130.167C351.159 130.168 351.159 130.168 351.159 130.168C351.159 130.168 351.159 130.168 351.159 130.168C351.159 130.168 351.159 130.168 351.159 130.168C351.159 130.168 351.159 130.168 351.159 130.168C351.159 130.168 351.159 130.168 351.159 130.168C351.159 130.168 351.159 130.168 351.159 130.168C351.159 130.168 351.159 130.168 351.159 130.168C351.159 130.168 351.159 130.168 351.159 130.168C351.159 130.169 351.159 130.169 351.159 130.169C351.159 130.169 351.159 130.169 351.159 130.169C351.159 130.169 351.159 130.169 351.159 130.169C351.159 130.169 351.159 130.169 351.159 130.169C351.159 130.169 351.159 130.169 351.159 130.169C351.159 130.169 351.159 130.169 351.159 130.169C351.159 130.169 351.159 130.169 351.159 130.169C351.159 130.169 351.159 130.169 351.159 130.17C351.159 130.17 351.159 130.17 351.159 130.17C351.159 130.17 351.159 130.17 351.159 130.17C351.159 130.17 351.159 130.17 351.159 130.17C351.159 130.17 351.159 130.17 351.159 130.17C351.159 130.17 351.159 130.17 351.159 130.17C351.159 130.17 351.159 130.17 351.159 130.17C351.159 130.17 351.159 130.17 351.159 130.17C351.159 130.17 351.159 130.17 351.159 130.171C351.159 130.171 351.159 130.171 351.159 130.171C351.159 130.171 351.159 130.171 351.159 130.171C351.159 130.171 351.159 130.171 351.159 130.171C351.159 130.171 351.159 130.171 351.159 130.171C351.159 130.171 351.159 130.171 351.159 130.171C351.159 130.171 351.159 130.171 351.159 130.171C351.159 130.171 351.159 130.171 351.159 130.171C351.159 130.171 351.159 130.172 351.159 130.172C351.159 130.172 351.159 130.172 351.159 130.172C351.159 130.172 351.159 130.172 351.159 130.172C351.159 130.172 351.159 130.172 351.159 130.172C351.159 130.172 351.159 130.172 351.159 130.172C351.159 130.172 351.159 130.172 351.159 130.172C351.159 130.172 351.159 130.172 351.159 130.172C351.159 130.172 351.159 130.172 351.159 130.172C351.159 130.173 351.159 130.173 351.159 130.173C351.159 130.173 351.159 130.173 351.159 130.173C351.159 130.173 351.159 130.173 351.159 130.173C351.159 130.173 351.159 130.173 351.159 130.173C351.159 130.173 351.159 130.173 351.159 130.173C351.159 130.173 351.159 130.173 351.159 130.173C351.159 130.173 351.159 130.173 351.159 130.173C351.159 130.173 351.159 130.173 351.159 130.174C351.159 130.174 351.159 130.174 351.159 130.174C351.159 130.174 351.159 130.174 351.159 130.174C351.159 130.174 351.159 130.174 351.159 130.174C351.159 130.174 351.159 130.174 351.159 130.174C351.159 130.174 351.159 130.174 351.159 130.174C351.159 130.174 351.159 130.174 351.159 130.174C351.159 130.174 351.159 130.174 351.159 130.174C351.159 130.175 351.159 130.175 351.159 130.175C351.159 130.175 351.159 130.175 351.159 130.175C351.159 130.175 351.159 130.175 351.159 130.175C351.159 130.175 351.159 130.175 351.159 130.175C351.159 130.175 351.159 130.175 351.159 130.175C351.159 130.175 351.159 130.175 351.159 130.175C351.159 130.175 351.159 130.175 351.159 130.175C351.159 130.175 351.159 130.175 351.159 130.176C351.159 130.176 351.159 130.176 351.159 130.176C351.159 130.176 351.159 130.176 351.159 130.176C351.159 130.176 351.159 130.176 351.159 130.176C351.159 130.176 351.159 130.176 351.159 130.176C351.159 130.176 351.159 130.176 351.159 130.176C351.159 130.176 351.159 130.176 351.159 130.176C351.159 130.176 351.159 130.176 351.159 130.176C351.159 130.176 351.159 130.177 351.159 130.177C351.159 130.177 351.159 130.177 351.159 130.177C351.159 130.177 351.159 130.177 351.159 130.177C351.159 130.177 351.159 130.177 351.159 130.177C351.159 130.177 351.159 130.177 351.159 130.177C351.159 130.177 351.159 130.177 351.159 130.177C351.159 130.177 351.159 130.177 351.159 130.177C351.159 130.177 351.159 130.177 351.159 130.178C351.159 130.178 351.159 130.178 351.159 130.178C351.159 130.178 351.159 130.178 351.159 130.178C351.159 130.178 351.159 130.178 351.159 130.178C351.159 130.178 351.159 130.178 351.159 130.178C351.159 130.178 351.159 130.178 351.159 130.178C351.159 130.178 351.159 130.178 351.159 130.178C351.159 130.178 351.159 130.178 351.159 130.178C351.159 130.178 351.159 130.179 351.159 130.179C351.159 130.179 351.159 130.179 351.159 130.179C351.159 130.179 351.159 130.179 351.159 130.179C351.159 130.179 351.159 130.179 351.159 130.179C351.159 130.179 351.159 130.179 351.159 130.179C351.159 130.179 351.159 130.179 351.159 130.179C351.159 130.179 351.159 130.179 351.159 130.179C351.159 130.179 351.159 130.179 351.159 130.179C351.159 130.18 351.159 130.18 351.159 130.18C351.159 130.18 351.159 130.18 351.159 130.18C351.159 130.18 351.159 130.18 351.159 130.18C351.159 130.18 351.159 130.18 351.159 130.18C351.159 130.18 351.159 130.18 351.159 130.18C351.159 130.18 351.159 130.18 351.159 130.18C351.159 130.18 351.159 130.18 351.159 130.18C351.159 130.18 351.159 130.18 351.159 130.181C351.159 130.181 351.159 130.181 351.159 130.181C351.159 130.181 351.159 130.181 351.159 130.181C351.159 130.181 351.159 130.181 351.159 130.181C351.159 130.181 351.159 130.181 351.159 130.181C351.159 130.181 351.159 130.181 351.159 130.181C351.159 130.181 351.159 130.181 351.159 130.181C351.159 130.181 351.159 130.181 351.159 130.181C351.159 130.181 351.159 130.182 351.159 130.182C351.159 130.182 351.159 130.182 351.159 130.182C351.159 130.182 351.159 130.182 351.159 130.182C351.159 130.182 351.159 130.182 351.159 130.182C351.159 130.182 351.159 130.182 351.159 130.182C351.159 130.182 351.159 130.182 351.159 130.182C351.159 130.182 351.159 130.182 351.159 130.182C351.159 130.182 351.159 130.182 351.159 130.182C351.159 130.183 351.159 130.183 351.159 130.183C351.159 130.183 351.159 130.183 351.159 130.183C351.159 130.183 351.159 130.183 351.159 130.183C351.159 130.183 351.159 130.183 351.159 130.183C351.159 130.183 351.159 130.183 351.159 130.183C351.159 130.183 351.159 130.183 351.159 130.183C351.159 130.183 351.159 130.183 351.159 130.183C351.159 130.183 351.159 130.183 351.159 130.184C351.159 130.184 351.159 130.184 351.159 130.184C351.159 130.184 351.159 130.184 351.159 130.184C351.159 130.184 351.159 130.184 351.159 130.184C351.159 130.184 351.159 130.184 351.159 130.184C351.159 130.184 351.159 130.184 351.159 130.184C351.159 130.184 351.159 130.184 351.159 130.184C351.159 130.184 351.159 130.184 351.159 130.184C351.159 130.184 351.159 130.185 351.159 130.185C351.159 130.185 351.159 130.185 351.159 130.185C351.159 130.185 351.159 130.185 351.159 130.185C351.159 130.185 351.159 130.185 351.159 130.185C351.159 130.185 351.159 130.185 351.159 130.185C351.159 130.185 351.159 130.185 351.159 130.185C351.159 130.185 351.159 130.185 351.159 130.185C351.159 130.185 351.159 130.185 351.159 130.185C351.159 130.185 351.159 130.186 351.159 130.186C351.159 130.186 351.159 130.186 351.159 130.186C351.159 130.186 351.159 130.186 351.159 130.186C351.159 130.186 351.159 130.186 351.159 130.186C351.159 130.186 351.159 130.186 351.159 130.186C351.159 130.186 351.159 130.186 351.159 130.186C351.159 130.186 351.159 130.186 351.159 130.186C351.159 130.186 351.159 130.186 351.159 130.186C351.159 130.186 351.159 130.187 351.159 130.187C351.159 130.187 351.159 130.187 351.159 130.187C351.159 130.187 351.159 130.187 351.159 130.187C351.159 130.187 351.159 130.187 351.159 130.187C351.159 130.187 351.159 130.187 351.159 130.187C351.159 130.187 351.159 130.187 351.159 130.187C351.159 130.187 351.159 130.187 351.159 130.187C351.159 130.187 351.159 130.187 351.159 130.187C351.159 130.187 351.159 130.188 351.159 130.188C351.159 130.188 351.159 130.188 351.159 130.188C351.159 130.188 351.159 130.188 351.159 130.188C351.159 130.188 351.159 130.188 351.159 130.188C351.159 130.188 351.159 130.188 351.159 130.188C351.159 130.188 351.159 130.188 351.159 130.188C351.159 130.188 351.159 130.188 351.159 130.188C351.159 130.188 351.159 130.188 351.159 130.188C351.159 130.188 351.159 130.189 351.159 130.189C351.159 130.189 351.159 130.189 351.159 130.189C351.159 130.189 351.159 130.189 351.159 130.189C351.159 130.189 351.159 130.189 351.159 130.189C351.159 130.189 351.159 130.189 351.159 130.189C351.159 130.189 351.159 130.189 351.159 130.189C351.159 130.189 351.159 130.189 351.159 130.189C351.159 130.189 351.159 130.189 351.159 130.189C351.159 130.189 351.159 130.189 351.159 130.19C351.159 130.19 351.159 130.19 351.159 130.19C351.159 130.19 351.159 130.19 351.159 130.19C351.159 130.19 351.159 130.19 351.159 130.19C351.159 130.19 351.159 130.19 351.159 130.19C351.159 130.19 351.159 130.19 351.159 130.19C351.159 130.19 351.159 130.19 351.159 130.19C351.159 130.19 351.159 130.19 351.159 130.19C351.159 130.19 351.159 130.19 351.159 130.19C351.159 130.19 351.159 130.191 351.159 130.191C351.159 130.191 351.159 130.191 351.159 130.191C351.159 130.191 351.159 130.191 351.159 130.191C351.159 130.191 351.159 130.191 351.159 130.191C351.159 130.191 351.159 130.191 351.159 130.191C351.159 130.191 351.159 130.191 351.159 130.191C351.159 130.191 351.159 130.191 351.159 130.191C351.159 130.191 351.159 130.191 351.159 130.191C351.159 130.191 351.159 130.191 351.159 130.191C351.159 130.192 351.159 130.192 351.159 130.192C351.159 130.192 351.159 130.192 351.159 130.192C351.159 130.192 351.159 130.192 351.159 130.192C351.159 130.192 351.159 130.192 351.159 130.192C351.159 130.192 351.159 130.192 351.159 130.192C351.159 130.192 351.159 130.192 351.159 130.192C351.159 130.192 351.159 130.192 351.159 130.192C351.159 130.192 351.159 130.192 351.159 130.192C351.159 130.192 351.159 130.192 351.159 130.193C351.159 130.193 351.159 130.193 351.159 130.193C351.159 130.193 351.159 130.193 351.159 130.193C351.159 130.193 351.159 130.193 351.159 130.193C351.159 130.193 351.159 130.193 351.159 130.193C351.159 130.193 351.159 130.193 351.159 130.193C351.159 130.193 351.159 130.193 351.159 130.193C351.159 130.193 351.159 130.193 351.159 130.193C351.159 130.193 351.159 130.193 351.159 130.193C351.159 130.193 351.159 130.193 351.159 130.193C351.159 130.194 351.159 130.194 351.159 130.194C351.159 130.194 351.159 130.194 351.159 130.194C351.159 130.194 351.159 130.194 351.159 130.194C351.159 130.194 351.159 130.194 351.159 130.194C351.159 130.194 351.159 130.194 351.159 130.194C351.159 130.194 351.159 130.194 351.159 130.194C351.159 130.194 351.159 130.194 351.159 130.194C351.159 130.194 351.159 130.194 351.159 130.194C351.159 130.194 351.159 130.194 351.159 130.194C351.159 130.194 351.159 130.195 351.159 130.195C351.159 130.195 351.159 130.195 351.159 130.195C351.159 130.195 351.159 130.195 351.159 130.195C351.159 130.195 351.159 130.195 351.159 130.195C351.159 130.195 351.159 130.195 351.159 130.195C351.159 130.195 351.159 130.195 351.159 130.195C351.159 130.195 351.159 130.195 351.159 130.195C351.159 130.195 351.159 130.195 351.159 130.195C351.159 130.195 351.159 130.195 351.159 130.195C351.159 130.195 351.159 130.195 351.159 130.195C351.159 130.196 351.159 130.196 351.159 130.196C351.159 130.196 351.159 130.196 351.159 130.196C351.159 130.196 351.159 130.196 351.159 130.196C351.159 130.196 351.159 130.196 351.159 130.196C351.159 130.196 351.159 130.196 351.159 130.196C351.159 130.196 351.159 130.196 351.159 130.196C351.159 130.196 351.159 130.196 351.159 130.196C351.159 130.196 351.159 130.196 351.159 130.196C351.159 130.196 351.159 130.196 351.159 130.196C351.159 130.196 351.159 130.196 351.159 130.196C351.159 130.196 351.159 130.197 351.159 130.197C351.159 130.197 351.159 130.197 351.159 130.197C351.159 130.197 351.159 130.197 351.159 130.197C351.159 130.197 351.159 130.197 351.159 130.197C351.159 130.197 351.159 130.197 351.159 130.197C351.159 130.197 351.159 130.197 351.159 130.197C351.159 130.197 351.159 130.197 351.159 130.197C351.159 130.197 351.159 130.197 351.159 130.197C351.159 130.197 351.159 130.197 351.159 130.197C351.159 130.197 351.159 130.197 351.159 130.197C351.159 130.197 351.159 130.197 351.159 130.197C351.159 130.198 351.159 130.198 351.159 130.198C351.159 130.198 351.159 130.198 351.159 130.198C351.159 130.198 351.159 130.198 351.159 130.198C351.159 130.198 351.159 130.198 351.159 130.198C351.159 130.198 351.159 130.198 351.159 130.198C351.159 130.198 351.159 130.198 351.159 130.198C351.159 130.198 351.159 130.198 351.159 130.198C351.159 130.198 351.159 130.198 351.159 130.198C351.159 130.198 351.159 130.198 351.159 130.198C351.159 130.198 351.159 130.198 351.159 130.198C351.159 130.198 351.159 130.198 351.159 130.198C351.159 130.199 351.159 130.199 351.159 130.199C351.159 130.199 351.159 130.199 351.159 130.199C351.159 130.199 351.159 130.199 351.159 130.199C351.159 130.199 351.159 130.199 351.159 130.199C351.159 130.199 351.159 130.199 351.159 130.199C351.159 130.199 351.159 130.199 351.159 130.199C351.159 130.199 351.159 130.199 351.159 130.199C351.159 130.199 351.159 130.199 351.159 130.199C351.159 130.199 351.159 130.199 351.159 130.199C351.159 130.199 351.159 130.199 351.159 130.199C351.159 130.199 351.159 130.199 351.159 130.199H353.159C353.159 130.199 353.159 130.199 353.159 130.199C353.159 130.199 353.159 130.199 353.159 130.199C353.159 130.199 353.159 130.199 353.159 130.199C353.159 130.199 353.159 130.199 353.159 130.199C353.159 130.199 353.159 130.199 353.159 130.199C353.159 130.199 353.159 130.199 353.159 130.199C353.159 130.199 353.159 130.199 353.159 130.199C353.159 130.199 353.159 130.199 353.159 130.199C353.159 130.199 353.159 130.199 353.159 130.199C353.159 130.199 353.159 130.199 353.159 130.199C353.159 130.199 353.159 130.199 353.159 130.198C353.159 130.198 353.159 130.198 353.159 130.198C353.159 130.198 353.159 130.198 353.159 130.198C353.159 130.198 353.159 130.198 353.159 130.198C353.159 130.198 353.159 130.198 353.159 130.198C353.159 130.198 353.159 130.198 353.159 130.198C353.159 130.198 353.159 130.198 353.159 130.198C353.159 130.198 353.159 130.198 353.159 130.198C353.159 130.198 353.159 130.198 353.159 130.198C353.159 130.198 353.159 130.198 353.159 130.198C353.159 130.198 353.159 130.198 353.159 130.198C353.159 130.198 353.159 130.198 353.159 130.197C353.159 130.197 353.159 130.197 353.159 130.197C353.159 130.197 353.159 130.197 353.159 130.197C353.159 130.197 353.159 130.197 353.159 130.197C353.159 130.197 353.159 130.197 353.159 130.197C353.159 130.197 353.159 130.197 353.159 130.197C353.159 130.197 353.159 130.197 353.159 130.197C353.159 130.197 353.159 130.197 353.159 130.197C353.159 130.197 353.159 130.197 353.159 130.197C353.159 130.197 353.159 130.197 353.159 130.197C353.159 130.197 353.159 130.197 353.159 130.197C353.159 130.197 353.159 130.196 353.159 130.196C353.159 130.196 353.159 130.196 353.159 130.196C353.159 130.196 353.159 130.196 353.159 130.196C353.159 130.196 353.159 130.196 353.159 130.196C353.159 130.196 353.159 130.196 353.159 130.196C353.159 130.196 353.159 130.196 353.159 130.196C353.159 130.196 353.159 130.196 353.159 130.196C353.159 130.196 353.159 130.196 353.159 130.196C353.159 130.196 353.159 130.196 353.159 130.196C353.159 130.196 353.159 130.196 353.159 130.196C353.159 130.196 353.159 130.196 353.159 130.195C353.159 130.195 353.159 130.195 353.159 130.195C353.159 130.195 353.159 130.195 353.159 130.195C353.159 130.195 353.159 130.195 353.159 130.195C353.159 130.195 353.159 130.195 353.159 130.195C353.159 130.195 353.159 130.195 353.159 130.195C353.159 130.195 353.159 130.195 353.159 130.195C353.159 130.195 353.159 130.195 353.159 130.195C353.159 130.195 353.159 130.195 353.159 130.195C353.159 130.195 353.159 130.195 353.159 130.195C353.159 130.195 353.159 130.194 353.159 130.194C353.159 130.194 353.159 130.194 353.159 130.194C353.159 130.194 353.159 130.194 353.159 130.194C353.159 130.194 353.159 130.194 353.159 130.194C353.159 130.194 353.159 130.194 353.159 130.194C353.159 130.194 353.159 130.194 353.159 130.194C353.159 130.194 353.159 130.194 353.159 130.194C353.159 130.194 353.159 130.194 353.159 130.194C353.159 130.194 353.159 130.194 353.159 130.194C353.159 130.194 353.159 130.194 353.159 130.193C353.159 130.193 353.159 130.193 353.159 130.193C353.159 130.193 353.159 130.193 353.159 130.193C353.159 130.193 353.159 130.193 353.159 130.193C353.159 130.193 353.159 130.193 353.159 130.193C353.159 130.193 353.159 130.193 353.159 130.193C353.159 130.193 353.159 130.193 353.159 130.193C353.159 130.193 353.159 130.193 353.159 130.193C353.159 130.193 353.159 130.193 353.159 130.193C353.159 130.193 353.159 130.193 353.159 130.193C353.159 130.192 353.159 130.192 353.159 130.192C353.159 130.192 353.159 130.192 353.159 130.192C353.159 130.192 353.159 130.192 353.159 130.192C353.159 130.192 353.159 130.192 353.159 130.192C353.159 130.192 353.159 130.192 353.159 130.192C353.159 130.192 353.159 130.192 353.159 130.192C353.159 130.192 353.159 130.192 353.159 130.192C353.159 130.192 353.159 130.192 353.159 130.192C353.159 130.192 353.159 130.192 353.159 130.191C353.159 130.191 353.159 130.191 353.159 130.191C353.159 130.191 353.159 130.191 353.159 130.191C353.159 130.191 353.159 130.191 353.159 130.191C353.159 130.191 353.159 130.191 353.159 130.191C353.159 130.191 353.159 130.191 353.159 130.191C353.159 130.191 353.159 130.191 353.159 130.191C353.159 130.191 353.159 130.191 353.159 130.191C353.159 130.191 353.159 130.191 353.159 130.191C353.159 130.191 353.159 130.19 353.159 130.19C353.159 130.19 353.159 130.19 353.159 130.19C353.159 130.19 353.159 130.19 353.159 130.19C353.159 130.19 353.159 130.19 353.159 130.19C353.159 130.19 353.159 130.19 353.159 130.19C353.159 130.19 353.159 130.19 353.159 130.19C353.159 130.19 353.159 130.19 353.159 130.19C353.159 130.19 353.159 130.19 353.159 130.19C353.159 130.19 353.159 130.19 353.159 130.19C353.159 130.189 353.159 130.189 353.159 130.189C353.159 130.189 353.159 130.189 353.159 130.189C353.159 130.189 353.159 130.189 353.159 130.189C353.159 130.189 353.159 130.189 353.159 130.189C353.159 130.189 353.159 130.189 353.159 130.189C353.159 130.189 353.159 130.189 353.159 130.189C353.159 130.189 353.159 130.189 353.159 130.189C353.159 130.189 353.159 130.189 353.159 130.189C353.159 130.189 353.159 130.188 353.159 130.188C353.159 130.188 353.159 130.188 353.159 130.188C353.159 130.188 353.159 130.188 353.159 130.188C353.159 130.188 353.159 130.188 353.159 130.188C353.159 130.188 353.159 130.188 353.159 130.188C353.159 130.188 353.159 130.188 353.159 130.188C353.159 130.188 353.159 130.188 353.159 130.188C353.159 130.188 353.159 130.188 353.159 130.188C353.159 130.188 353.159 130.187 353.159 130.187C353.159 130.187 353.159 130.187 353.159 130.187C353.159 130.187 353.159 130.187 353.159 130.187C353.159 130.187 353.159 130.187 353.159 130.187C353.159 130.187 353.159 130.187 353.159 130.187C353.159 130.187 353.159 130.187 353.159 130.187C353.159 130.187 353.159 130.187 353.159 130.187C353.159 130.187 353.159 130.187 353.159 130.187C353.159 130.187 353.159 130.186 353.159 130.186C353.159 130.186 353.159 130.186 353.159 130.186C353.159 130.186 353.159 130.186 353.159 130.186C353.159 130.186 353.159 130.186 353.159 130.186C353.159 130.186 353.159 130.186 353.159 130.186C353.159 130.186 353.159 130.186 353.159 130.186C353.159 130.186 353.159 130.186 353.159 130.186C353.159 130.186 353.159 130.186 353.159 130.186C353.159 130.186 353.159 130.185 353.159 130.185C353.159 130.185 353.159 130.185 353.159 130.185C353.159 130.185 353.159 130.185 353.159 130.185C353.159 130.185 353.159 130.185 353.159 130.185C353.159 130.185 353.159 130.185 353.159 130.185C353.159 130.185 353.159 130.185 353.159 130.185C353.159 130.185 353.159 130.185 353.159 130.185C353.159 130.185 353.159 130.185 353.159 130.185C353.159 130.185 353.159 130.184 353.159 130.184C353.159 130.184 353.159 130.184 353.159 130.184C353.159 130.184 353.159 130.184 353.159 130.184C353.159 130.184 353.159 130.184 353.159 130.184C353.159 130.184 353.159 130.184 353.159 130.184C353.159 130.184 353.159 130.184 353.159 130.184C353.159 130.184 353.159 130.184 353.159 130.184C353.159 130.184 353.159 130.184 353.159 130.184C353.159 130.183 353.159 130.183 353.159 130.183C353.159 130.183 353.159 130.183 353.159 130.183C353.159 130.183 353.159 130.183 353.159 130.183C353.159 130.183 353.159 130.183 353.159 130.183C353.159 130.183 353.159 130.183 353.159 130.183C353.159 130.183 353.159 130.183 353.159 130.183C353.159 130.183 353.159 130.183 353.159 130.183C353.159 130.183 353.159 130.183 353.159 130.182C353.159 130.182 353.159 130.182 353.159 130.182C353.159 130.182 353.159 130.182 353.159 130.182C353.159 130.182 353.159 130.182 353.159 130.182C353.159 130.182 353.159 130.182 353.159 130.182C353.159 130.182 353.159 130.182 353.159 130.182C353.159 130.182 353.159 130.182 353.159 130.182C353.159 130.182 353.159 130.182 353.159 130.182C353.159 130.182 353.159 130.181 353.159 130.181C353.159 130.181 353.159 130.181 353.159 130.181C353.159 130.181 353.159 130.181 353.159 130.181C353.159 130.181 353.159 130.181 353.159 130.181C353.159 130.181 353.159 130.181 353.159 130.181C353.159 130.181 353.159 130.181 353.159 130.181C353.159 130.181 353.159 130.181 353.159 130.181C353.159 130.181 353.159 130.181 353.159 130.181C353.159 130.18 353.159 130.18 353.159 130.18C353.159 130.18 353.159 130.18 353.159 130.18C353.159 130.18 353.159 130.18 353.159 130.18C353.159 130.18 353.159 130.18 353.159 130.18C353.159 130.18 353.159 130.18 353.159 130.18C353.159 130.18 353.159 130.18 353.159 130.18C353.159 130.18 353.159 130.18 353.159 130.18C353.159 130.18 353.159 130.18 353.159 130.179C353.159 130.179 353.159 130.179 353.159 130.179C353.159 130.179 353.159 130.179 353.159 130.179C353.159 130.179 353.159 130.179 353.159 130.179C353.159 130.179 353.159 130.179 353.159 130.179C353.159 130.179 353.159 130.179 353.159 130.179C353.159 130.179 353.159 130.179 353.159 130.179C353.159 130.179 353.159 130.179 353.159 130.179C353.159 130.179 353.159 130.178 353.159 130.178C353.159 130.178 353.159 130.178 353.159 130.178C353.159 130.178 353.159 130.178 353.159 130.178C353.159 130.178 353.159 130.178 353.159 130.178C353.159 130.178 353.159 130.178 353.159 130.178C353.159 130.178 353.159 130.178 353.159 130.178C353.159 130.178 353.159 130.178 353.159 130.178C353.159 130.178 353.159 130.178 353.159 130.178C353.159 130.177 353.159 130.177 353.159 130.177C353.159 130.177 353.159 130.177 353.159 130.177C353.159 130.177 353.159 130.177 353.159 130.177C353.159 130.177 353.159 130.177 353.159 130.177C353.159 130.177 353.159 130.177 353.159 130.177C353.159 130.177 353.159 130.177 353.159 130.177C353.159 130.177 353.159 130.177 353.159 130.177C353.159 130.177 353.159 130.176 353.159 130.176C353.159 130.176 353.159 130.176 353.159 130.176C353.159 130.176 353.159 130.176 353.159 130.176C353.159 130.176 353.159 130.176 353.159 130.176C353.159 130.176 353.159 130.176 353.159 130.176C353.159 130.176 353.159 130.176 353.159 130.176C353.159 130.176 353.159 130.176 353.159 130.176C353.159 130.176 353.159 130.176 353.159 130.176C353.159 130.175 353.159 130.175 353.159 130.175C353.159 130.175 353.159 130.175 353.159 130.175C353.159 130.175 353.159 130.175 353.159 130.175C353.159 130.175 353.159 130.175 353.159 130.175C353.159 130.175 353.159 130.175 353.159 130.175C353.159 130.175 353.159 130.175 353.159 130.175C353.159 130.175 353.159 130.175 353.159 130.175C353.159 130.175 353.159 130.175 353.159 130.174C353.159 130.174 353.159 130.174 353.159 130.174C353.159 130.174 353.159 130.174 353.159 130.174C353.159 130.174 353.159 130.174 353.159 130.174C353.159 130.174 353.159 130.174 353.159 130.174C353.159 130.174 353.159 130.174 353.159 130.174C353.159 130.174 353.159 130.174 353.159 130.174C353.159 130.174 353.159 130.174 353.159 130.174C353.159 130.173 353.159 130.173 353.159 130.173C353.159 130.173 353.159 130.173 353.159 130.173C353.159 130.173 353.159 130.173 353.159 130.173C353.159 130.173 353.159 130.173 353.159 130.173C353.159 130.173 353.159 130.173 353.159 130.173C353.159 130.173 353.159 130.173 353.159 130.173C353.159 130.173 353.159 130.173 353.159 130.173C353.159 130.173 353.159 130.173 353.159 130.172C353.159 130.172 353.159 130.172 353.159 130.172C353.159 130.172 353.159 130.172 353.159 130.172C353.159 130.172 353.159 130.172 353.159 130.172C353.159 130.172 353.159 130.172 353.159 130.172C353.159 130.172 353.159 130.172 353.159 130.172C353.159 130.172 353.159 130.172 353.159 130.172C353.159 130.172 353.159 130.172 353.159 130.172C353.159 130.172 353.159 130.171 353.159 130.171C353.159 130.171 353.159 130.171 353.159 130.171C353.159 130.171 353.159 130.171 353.159 130.171C353.159 130.171 353.159 130.171 353.159 130.171C353.159 130.171 353.159 130.171 353.159 130.171C353.159 130.171 353.159 130.171 353.159 130.171C353.159 130.171 353.159 130.171 353.159 130.171C353.159 130.171 353.159 130.171 353.159 130.171C353.159 130.17 353.159 130.17 353.159 130.17C353.159 130.17 353.159 130.17 353.159 130.17C353.159 130.17 353.159 130.17 353.159 130.17C353.159 130.17 353.159 130.17 353.159 130.17C353.159 130.17 353.159 130.17 353.159 130.17C353.159 130.17 353.159 130.17 353.159 130.17C353.159 130.17 353.159 130.17 353.159 130.17C353.159 130.17 353.159 130.17 353.159 130.17C353.159 130.169 353.159 130.169 353.159 130.169C353.159 130.169 353.159 130.169 353.159 130.169C353.159 130.169 353.159 130.169 353.159 130.169C353.159 130.169 353.159 130.169 353.159 130.169C353.159 130.169 353.159 130.169 353.159 130.169C353.159 130.169 353.159 130.169 353.159 130.169C353.159 130.169 353.159 130.169 353.159 130.169C353.159 130.169 353.159 130.169 353.159 130.168C353.159 130.168 353.159 130.168 353.159 130.168C353.159 130.168 353.159 130.168 353.159 130.168C353.159 130.168 353.159 130.168 353.159 130.168C353.159 130.168 353.159 130.168 353.159 130.168C353.159 130.168 353.159 130.168 353.159 130.168C353.159 130.168 353.159 130.168 353.159 130.168C353.159 130.168 353.159 130.168 353.159 130.168C353.159 130.168 353.159 130.168 353.159 130.167C353.159 130.167 353.159 130.167 353.159 130.167C353.159 130.167 353.159 130.167 353.159 130.167C353.159 130.167 353.159 130.167 353.159 130.167C353.159 130.167 353.159 130.167 353.159 130.167C353.159 130.167 353.159 130.167 353.159 130.167C353.159 130.167 353.159 130.167 353.159 130.167C353.159 130.167 353.159 130.167 353.159 130.167C353.159 130.167 353.159 130.167 353.159 130.166C353.159 130.166 353.159 130.166 353.159 130.166C353.159 130.166 353.159 130.166 353.159 130.166C353.159 130.166 353.159 130.166 353.159 130.166C353.159 130.166 353.159 130.166 353.159 130.166C353.159 130.166 353.159 130.166 353.159 130.166C353.159 130.166 353.159 130.166 353.159 130.166C353.159 130.166 353.159 130.166 353.159 130.166C353.159 130.166 353.159 130.166 353.159 130.165C353.159 130.165 353.159 130.165 353.159 130.165C353.159 130.165 353.159 130.165 353.159 130.165C353.159 130.165 353.159 130.165 353.159 130.165C353.159 130.165 353.159 130.165 353.159 130.165C353.159 130.165 353.159 130.165 353.159 130.165C353.159 130.165 353.159 130.165 353.159 130.165C353.159 130.165 353.159 130.165 353.159 130.165C353.159 130.165 353.159 130.165 353.159 130.165C353.159 130.164 353.159 130.164 353.159 130.164C353.159 130.164 353.159 130.164 353.159 130.164C353.159 130.164 353.159 130.164 353.159 130.164C353.159 130.164 353.159 130.164 353.159 130.164C353.159 130.164 353.159 130.164 353.159 130.164C353.159 130.164 353.159 130.164 353.159 130.164C353.159 130.164 353.159 130.164 353.159 130.164C353.159 130.164 353.159 130.164 353.159 130.164C353.159 130.164 353.159 130.163 353.159 130.163C353.159 130.163 353.159 130.163 353.159 130.163C353.159 130.163 353.159 130.163 353.159 130.163C353.159 130.163 353.159 130.163 353.159 130.163C353.159 130.163 353.159 130.163 353.159 130.163C353.159 130.163 353.159 130.163 353.159 130.163C353.159 130.163 353.159 130.163 353.159 130.163C353.159 130.163 353.159 130.163 353.159 130.163C353.159 130.163 353.159 130.163 353.159 130.163C353.159 130.162 353.159 130.162 353.159 130.162C353.159 130.162 353.159 130.162 353.159 130.162C353.159 130.162 353.159 130.162 353.159 130.162C353.159 130.162 353.159 130.162 353.159 130.162C353.159 130.162 353.159 130.162 353.159 130.162C353.159 130.162 353.159 130.162 353.159 130.162C353.159 130.162 353.159 130.162 353.159 130.162C353.159 130.162 353.159 130.162 353.159 130.162C353.159 130.162 353.159 130.162 353.159 130.161C353.159 130.161 353.159 130.161 353.159 130.161C353.159 130.161 353.159 130.161 353.159 130.161C353.159 130.161 353.159 130.161 353.159 130.161C353.159 130.161 353.159 130.161 353.159 130.161C353.159 130.161 353.159 130.161 353.159 130.161C353.159 130.161 353.159 130.161 353.159 130.161C353.159 130.161 353.159 130.161 353.159 130.161C353.159 130.161 353.159 130.161 353.159 130.161C353.159 130.161 353.159 130.161 353.159 130.16C353.159 130.16 353.159 130.16 353.159 130.16C353.159 130.16 353.159 130.16 353.159 130.16C353.159 130.16 353.159 130.16 353.159 130.16C353.159 130.16 353.159 130.16 353.159 130.16C353.159 130.16 353.159 130.16 353.159 130.16C353.159 130.16 353.159 130.16 353.159 130.16C353.159 130.16 353.159 130.16 353.159 130.16C353.159 130.16 353.159 130.16 353.159 130.16C353.159 130.16 353.159 130.16 353.159 130.16C353.159 130.159 353.159 130.159 353.159 130.159C353.159 130.159 353.159 130.159 353.159 130.159C353.159 130.159 353.159 130.159 353.159 130.159C353.159 130.159 353.159 130.159 353.159 130.159C353.159 130.159 353.159 130.159 353.159 130.159C353.159 130.159 353.159 130.159 353.159 130.159C353.159 130.159 353.159 130.159 353.159 130.159C353.159 130.159 353.159 130.159 353.159 130.159C353.159 130.159 353.159 130.159 353.159 130.159C353.159 130.159 353.159 130.158 353.159 130.158C353.159 130.158 353.159 130.158 353.159 130.158C353.159 130.158 353.159 130.158 353.159 130.158C353.159 130.158 353.159 130.158 353.159 130.158C353.159 130.158 353.159 130.158 353.159 130.158C353.159 130.158 353.159 130.158 353.159 130.158C353.159 130.158 353.159 130.158 353.159 130.158C353.159 130.158 353.159 130.158 353.159 130.158C353.159 130.158 353.159 130.158 353.159 130.158C353.159 130.158 353.159 130.158 353.159 130.158C353.159 130.158 353.159 130.157 353.159 130.157C353.159 130.157 353.159 130.157 353.159 130.157C353.159 130.157 353.159 130.157 353.159 130.157C353.159 130.157 353.159 130.157 353.159 130.157C353.159 130.157 353.159 130.157 353.159 130.157C353.159 130.157 353.159 130.157 353.159 130.157C353.159 130.157 353.159 130.157 353.159 130.157C353.159 130.157 353.159 130.157 353.159 130.157C353.159 130.157 353.159 130.157 353.159 130.157C353.159 130.157 353.159 130.157 353.159 130.157C353.159 130.157 353.159 130.157 353.159 130.156C353.159 130.156 353.159 130.156 353.159 130.156C353.159 130.156 353.159 130.156 353.159 130.156C353.159 130.156 353.159 130.156 353.159 130.156C353.159 130.156 353.159 130.156 353.159 130.156C353.159 130.156 353.159 130.156 353.159 130.156C353.159 130.156 353.159 130.156 353.159 130.156C353.159 130.156 353.159 130.156 353.159 130.156C353.159 130.156 353.159 130.156 353.159 130.156C353.159 130.156 353.159 130.156 353.159 130.156C353.159 130.156 353.159 130.156 353.159 130.156C353.159 130.156 353.159 130.156 353.159 130.155C353.159 130.155 353.159 130.155 353.159 130.155C353.159 130.155 353.159 130.155 353.159 130.155C353.159 130.155 353.159 130.155 353.159 130.155C353.159 130.155 353.159 130.155 353.159 130.155C353.159 130.155 353.159 130.155 353.159 130.155C353.159 130.155 353.159 130.155 353.159 130.155C353.159 130.155 353.159 130.155 353.159 130.155C353.159 130.155 353.159 130.155 353.159 130.155C353.159 130.155 353.159 130.155 353.159 130.155C353.159 130.155 353.159 130.155 353.159 130.155C353.159 130.155 353.159 130.155 353.159 130.155C353.159 130.154 353.159 130.154 353.159 130.154C353.159 130.154 353.159 130.154 353.159 130.154C353.159 130.154 353.159 130.154 353.159 130.154C353.159 130.154 353.159 130.154 353.159 130.154C353.159 130.154 353.159 130.154 353.159 130.154C353.159 130.154 353.159 130.154 353.159 130.154C353.159 130.154 353.159 130.154 353.159 130.154C353.159 130.154 353.159 130.154 353.159 130.154C353.159 130.154 353.159 130.154 353.159 130.154C353.159 130.154 353.159 130.154 353.159 130.154C353.159 130.154 353.159 130.154 353.159 130.154C353.159 130.154 353.159 130.154 353.159 130.154C353.159 130.154 353.159 130.154 353.159 130.153C353.159 130.153 353.159 130.153 353.159 130.153C353.159 130.153 353.159 130.153 353.159 130.153C353.159 130.153 353.159 130.153 353.159 130.153C353.159 130.153 353.159 130.153 353.159 130.153C353.159 130.153 353.159 130.153 353.159 130.153C353.159 130.153 353.159 130.153 353.159 130.153C353.159 130.153 353.159 130.153 353.159 130.153C353.159 130.153 353.159 130.153 353.159 130.153C353.159 130.153 353.159 130.153 353.159 130.153C353.159 130.153 353.159 130.153 353.159 130.153C353.159 130.153 353.159 130.153 353.159 130.153C353.159 130.153 353.159 130.153 353.159 130.153C353.159 130.153 353.159 130.153 353.159 130.153C353.159 130.153 353.159 130.152 353.159 130.152C353.159 130.152 353.159 130.152 353.159 130.152C353.159 130.152 353.159 130.152 353.159 130.152C353.159 130.152 353.159 130.152 353.159 130.152C353.159 130.152 353.159 130.152 353.159 130.152C353.159 130.152 353.159 130.152 353.159 130.152C353.159 130.152 353.159 130.152 353.159 130.152C353.159 130.152 353.159 130.152 353.159 130.152C353.159 130.152 353.159 130.152 353.159 130.152C353.159 130.152 353.159 130.152 353.159 130.152C353.159 130.152 353.159 130.152 353.159 130.152C353.159 130.152 353.159 130.152 353.159 130.152C353.159 130.152 353.159 130.152 353.159 130.152C353.159 130.152 353.159 130.152 353.159 130.152C353.159 130.152 353.159 130.152 353.159 130.152C353.159 130.152 353.159 130.152 353.159 130.151C353.159 130.151 353.159 130.151 353.159 130.151C353.159 130.151 353.159 130.151 353.159 130.151C353.159 130.151 353.159 130.151 353.159 130.151C353.159 130.151 353.159 130.151 353.159 130.151C353.159 130.151 353.159 130.151 353.159 130.151C353.159 130.151 353.159 130.151 353.159 130.151C353.159 130.151 353.159 130.151 353.159 130.151C353.159 130.151 353.159 130.151 353.159 130.151C353.159 130.151 353.159 130.151 353.159 130.151C353.159 130.151 353.159 130.151 353.159 130.151C353.159 130.151 353.159 130.151 353.159 130.151C353.159 130.151 353.159 130.151 353.159 130.151C353.159 130.151 353.159 130.151 353.159 130.151C353.159 130.151 353.159 130.151 353.159 130.151C353.159 130.151 353.159 130.151 353.159 130.151C353.159 130.151 353.159 130.151 353.159 130.151C353.159 130.151 353.159 130.151 353.159 130.151C353.159 130.151 353.159 130.151 353.159 130.151C353.159 130.15 353.159 130.15 353.159 130.15C353.159 130.15 353.159 130.15 353.159 130.15C353.159 130.15 353.159 130.15 353.159 130.15C353.159 130.15 353.159 130.15 353.159 130.15C353.159 130.15 353.159 130.15 353.159 130.15C353.159 130.15 353.159 130.15 353.159 130.15C353.159 130.15 353.159 130.15 353.159 130.15C353.159 130.15 353.159 130.15 353.159 130.15C353.159 130.15 353.159 130.15 353.159 130.15C353.159 130.15 353.159 130.15 353.159 130.15C353.159 130.15 353.159 130.15 353.159 130.15C353.159 130.15 353.159 130.15 353.159 130.15C353.159 130.15 353.159 130.15 353.159 130.15C353.159 130.15 353.159 130.15 353.159 130.15C353.159 130.15 353.159 130.15 353.159 130.15C353.159 130.15 353.159 130.15 353.159 130.15C353.159 130.15 353.159 130.15 353.159 130.15C353.159 130.15 353.159 130.15 353.159 130.15C353.159 130.15 353.159 130.15 353.159 130.15C353.159 130.15 353.159 130.15 353.159 130.15C353.159 130.15 353.159 130.15 353.159 130.15C353.159 130.15 353.159 130.15 353.159 130.15C353.159 130.15 353.159 130.15 353.159 130.15C353.159 130.15 353.159 130.15 353.159 130.15C353.159 130.15 353.159 130.15 353.159 130.15C353.159 130.15 353.159 130.15 353.159 130.149C353.159 130.149 353.159 130.149 353.159 130.149C353.159 130.149 353.159 130.149 353.159 130.149C353.159 130.149 353.159 130.149 353.159 130.149C353.159 130.149 353.159 130.149 353.159 130.149C353.159 130.149 353.159 130.149 353.159 130.149C353.159 130.149 353.159 130.149 353.159 130.149C353.159 130.149 353.159 130.149 353.159 130.149C353.159 130.149 353.159 130.149 353.159 130.149C353.159 130.149 353.159 130.149 353.159 130.149C353.159 130.149 353.159 130.149 353.159 130.149C353.159 130.149 353.159 130.149 353.159 130.149C353.159 130.149 353.159 130.149 353.159 130.149C353.159 130.149 353.159 130.149 353.159 130.149C353.159 130.149 353.159 130.149 353.159 130.149C353.159 130.149 353.159 130.149 353.159 130.149C353.159 130.149 353.159 130.149 353.159 130.149C353.159 130.149 353.159 130.149 353.159 130.149C353.159 130.149 353.159 130.149 353.159 130.149C353.159 130.149 353.159 130.149 353.159 130.149C353.159 130.149 353.159 130.149 353.159 130.149C353.159 130.149 353.159 130.149 353.159 130.149C353.159 130.149 353.159 130.149 353.159 130.149C353.159 130.149 353.159 130.149 353.159 130.149C353.159 130.149 353.159 130.149 353.159 130.149C353.159 130.149 353.159 130.149 353.159 130.149C353.159 130.149 353.159 130.149 353.159 130.149C353.159 130.149 353.159 130.149 353.159 130.149C353.159 130.149 353.159 130.149 353.159 130.149C353.159 130.149 353.159 130.149 353.159 130.149C353.159 130.149 353.159 130.149 353.159 130.149C353.159 130.149 353.159 130.149 353.159 130.149C353.159 130.149 353.159 130.149 353.159 130.149C353.159 130.149 353.159 130.149 353.159 130.149C353.159 130.149 353.159 130.149 353.159 130.149C353.159 130.149 353.159 130.149 353.159 130.149C353.159 130.149 353.159 130.149 353.159 130.149C353.159 130.149 353.159 130.149 353.159 130.149C353.159 130.149 353.159 130.149 352.159 130.149ZM352.159 131.199H352.21V129.199H352.159V131.199ZM353.21 130.199V130.149H351.21V130.199H353.21Z" fill="#C1ABED" mask="url(#path-3-inside-3_144_2063)"/>
<path d="M221.834 133.949C221.608 133.974 221.428 134.148 221.394 134.373C221.268 135.23 221.142 136.083 220.994 137.083H111.295C111.25 136.659 111.208 136.264 111.166 135.873C111.116 135.407 111.067 134.947 111.014 134.451C110.989 134.223 110.813 134.041 110.586 134.01L110.418 133.986C109.573 133.869 108.761 133.756 107.838 133.625V28.2449C108.153 28.2047 108.462 28.1651 108.772 28.1254C109.345 28.0519 109.921 27.9782 110.539 27.9001C110.769 27.871 110.949 27.6879 110.973 27.4576C111.068 26.578 111.161 25.7366 111.26 24.8376C111.281 24.6418 111.303 24.4433 111.325 24.2411H221.005C221.042 24.6493 221.077 25.046 221.114 25.4468C221.17 26.0742 221.227 26.7115 221.292 27.4181C221.314 27.6534 221.497 27.8415 221.731 27.8691C222.443 27.9529 223.163 28.0368 223.917 28.1245C224.278 28.1667 224.648 28.2097 225.027 28.254V133.602C224.663 133.642 224.301 133.681 223.934 133.721C223.262 133.793 222.576 133.868 221.834 133.949ZM115.007 28.073C114.816 28.1484 114.691 28.3328 114.691 28.538V39.0451C114.691 39.2992 114.881 39.5129 115.134 39.5418C115.862 39.6255 116.578 39.7058 117.376 39.7955C117.737 39.836 118.115 39.8784 118.518 39.9238V54.5921C118.518 54.8445 118.706 55.0574 118.957 55.0883C119.467 55.1512 119.928 55.208 120.375 55.263C121.076 55.3492 121.739 55.4309 122.494 55.5244V66.7866C122.494 67.0407 122.685 67.2544 122.937 67.2834C124.311 67.4409 125.365 67.5621 126.628 67.7088V82.2571C126.628 82.5011 126.804 82.7094 127.044 82.7501C127.777 82.8741 128.415 82.9809 129.043 83.0859C129.551 83.171 130.052 83.2548 130.59 83.3457V94.5507C130.59 94.7885 130.758 94.9934 130.991 95.0407C131.659 95.1763 132.249 95.2942 132.848 95.4141C133.24 95.4925 133.636 95.5718 134.062 95.6574V110.21C134.062 110.465 134.254 110.679 134.507 110.707C135.83 110.853 136.885 110.97 138.204 111.117V125.919C138.204 126.177 138.401 126.393 138.658 126.417C139.261 126.473 139.795 126.523 140.316 126.572C140.945 126.631 141.553 126.688 142.239 126.752V133.938C142.239 134.214 142.463 134.438 142.739 134.438H150.511C150.787 134.438 151.011 134.214 151.011 133.938V126.396C151.011 126.142 150.82 125.928 150.567 125.899C149.414 125.769 148.375 125.654 147.057 125.511V110.705C147.057 110.447 146.861 110.231 146.604 110.207C145.279 110.083 144.278 109.99 143.032 109.875V98.623C143.032 98.3688 142.841 98.155 142.588 98.1262C141.249 97.9736 140.217 97.8551 139.227 97.7409V87.1579H146.418C146.672 87.1579 146.886 86.9665 146.915 86.7134C146.992 86.0165 147.062 85.3934 147.128 84.7956C147.185 84.2868 147.24 83.7964 147.296 83.2946C149.573 83.1641 151.745 83.0412 153.925 82.9183C154.163 82.9049 154.359 82.7247 154.392 82.4883C154.464 81.9752 154.529 81.507 154.592 81.0616C154.677 80.454 154.756 79.8889 154.836 79.3102H165.831C165.903 79.9732 165.971 80.593 166.038 81.2031C166.086 81.6468 166.135 82.0854 166.183 82.5318C166.209 82.7653 166.393 82.9496 166.627 82.9747C167.387 83.0565 168.094 83.1321 168.793 83.207C169.154 83.2457 169.514 83.2842 169.877 83.3232C169.944 83.9507 170.009 84.5486 170.074 85.1441C170.125 85.6097 170.176 86.0738 170.227 86.5494C170.254 86.8034 170.468 86.9959 170.724 86.9959H185.921C186.174 86.9959 186.387 86.8066 186.417 86.5551C186.558 85.3694 186.682 84.3353 186.829 83.0901H194.012C194.268 83.0901 194.483 82.8964 194.51 82.6415C194.546 82.2852 194.581 81.9487 194.614 81.627C194.704 80.7624 194.782 80.0045 194.86 79.2544C195.182 79.2119 195.49 79.171 195.791 79.1311C196.42 79.0477 197.018 78.9685 197.639 78.8875C197.867 78.8578 198.045 78.6764 198.071 78.4479C198.132 77.9038 198.192 77.3845 198.25 76.8742C198.312 76.3239 198.374 75.784 198.436 75.2352C198.852 75.1884 199.254 75.1429 199.65 75.098C200.327 75.0214 200.988 74.9466 201.673 74.8703C201.903 74.8446 202.086 74.6639 202.114 74.4337C202.217 73.5846 202.307 72.8165 202.4 72.0248C202.414 71.9095 202.427 71.7936 202.441 71.677C203.558 71.5667 204.59 71.4653 205.709 71.3567C205.944 71.3338 206.131 71.1496 206.158 70.9148C206.256 70.0452 206.345 69.2274 206.431 68.4462C206.461 68.1753 206.491 67.9088 206.52 67.646C207.1 67.5773 207.632 67.5142 208.133 67.4547C208.695 67.3879 209.219 67.3257 209.732 67.2652C209.964 67.2378 210.146 67.0532 210.17 66.8207C210.281 65.7595 210.388 64.7397 210.493 63.7447C210.626 62.4808 210.755 61.257 210.882 60.0392C211.607 59.8538 212.232 59.6929 212.89 59.5236C213.279 59.4234 213.68 59.3202 214.12 59.2072C214.341 59.1504 214.496 58.9512 214.496 58.7229V52.02C214.983 51.9506 215.422 51.8879 215.836 51.8289C216.368 51.7529 216.857 51.6831 217.349 51.6132C217.595 51.5782 217.778 51.3672 217.778 51.1182V43.5315C217.778 43.2553 217.554 43.0315 217.278 43.0315H214.252C213.997 43.0315 213.782 43.2242 213.755 43.4783C213.702 43.9779 213.65 44.4594 213.596 44.954C213.528 45.5843 213.458 46.2359 213.379 46.9733H198.033C197.775 46.9733 197.56 47.1695 197.535 47.4262C197.413 48.7194 197.322 49.7019 197.226 50.7577H178.66C178.536 49.6231 178.423 48.6067 178.304 47.5306C178.278 47.2965 178.092 47.1123 177.857 47.0884C177.087 47.0098 176.366 46.9361 175.644 46.8623C175.3 46.8272 174.956 46.792 174.607 46.7563C174.493 45.6401 174.392 44.615 174.283 43.5139C174.26 43.2818 174.08 43.0963 173.849 43.0669C172.87 42.9426 171.991 42.8326 170.837 42.6892V35.1257C170.837 34.8496 170.613 34.6257 170.337 34.6257H162.95C162.881 34.0541 162.822 33.5486 162.764 33.0494C162.718 32.6609 162.673 32.2763 162.624 31.8674C162.595 31.6158 162.381 31.4264 162.128 31.4264H146.944C146.694 31.4264 146.481 31.6124 146.449 31.8611C146.38 32.3818 146.315 32.8717 146.248 33.3734C146.188 33.8262 146.127 34.2887 146.06 34.7922H138.853C138.598 34.7922 138.385 34.9834 138.356 35.2363C138.224 36.4065 138.116 37.3748 138.001 38.411C137.99 38.5061 137.98 38.6017 137.969 38.6981H123.569C123.127 35.9577 122.745 33.8054 122.344 32.1512C121.927 30.4265 121.475 29.1779 120.868 28.3623C120.558 27.9454 120.201 27.631 119.779 27.4274C119.357 27.2239 118.901 27.145 118.414 27.1561C117.465 27.1778 116.34 27.5458 115.007 28.073Z" fill="#1C0A39" stroke="#C1ABED" stroke-linejoin="round"/>
<path d="M277.555 51.4958C277.43 51.5718 277.345 51.698 277.321 51.84C277.141 52.5996 276.943 53.4177 276.722 54.3306H269.768V39.9186H279.948V50.0443C279.481 50.3269 279.077 50.5726 278.692 50.8064C278.307 51.0399 277.943 51.2614 277.555 51.4958Z" fill="#1C0A39" stroke="#C1ABED" stroke-linejoin="round"/>
<path d="M395.061 138.366V160.873H392.311V138.366H395.061Z" fill="#1C0A39" stroke="#C1ABED" stroke-linejoin="round"/>
<path d="M574.562 160.936V138.398H576.754V160.936H574.562Z" fill="#1C0A39" stroke="#C1ABED" stroke-linejoin="round"/>
<path d="M134.258 58.7514C134.282 58.9856 134.466 59.1713 134.7 59.1974C135.54 59.291 136.347 59.3782 137.203 59.4708C137.441 59.4966 137.682 59.5227 137.93 59.5496V74.0579H135.089V67.4031C135.089 67.156 134.908 66.946 134.664 66.9088C134.131 66.8277 133.649 66.755 133.179 66.6838C132.682 66.6089 132.198 66.5356 131.676 66.4561V55.6006H133.935C133.998 56.216 134.06 56.8224 134.124 57.4476C134.168 57.8707 134.212 58.3025 134.258 58.7514Z" fill="#1C0A39" stroke="#C1ABED" stroke-linejoin="round"/>
</g>
<defs>
<clipPath id="clip0_144_2063">
<rect width="665" height="213" fill="white"/>
</clipPath>
</defs>
</svg>